<svg width="191" height="134" viewBox="0 0 191 134" fill="none" xmlns="http://www.w3.org/2000/svg">
<g clip-path="url(#clip0_27_532)">
<path d="M44.937 63.3867H30.2912V43.3997H14.6707V63.3867H0.0294189V0.142151H14.6707V31.0557H30.2912V12.033H44.937V63.3867ZM33.0937 60.5923H42.1345V14.8409H33.0937V33.8636H11.8727V2.94106H2.8454V60.5923H11.8727V40.6007H33.0937V60.5923Z" fill="#233974"/>
<path d="M44.937 133.382H30.2912V101.504H14.6707V121.491H0.0294189V70.1373H14.6707V89.16H30.2912V70.1373H44.937V133.382ZM33.0937 130.583H42.1345V72.9542H33.0937V91.9724H11.8727V72.9542H2.8454V118.706H11.8727V98.705H33.0937V130.583Z" fill="#233974"/>
<path d="M79.7708 12.033H64.092L45.5118 63.3868H60.9077L63.818 54.8106H78.4593C78.4234 54.4204 78.401 54.0301 78.401 53.6354C78.401 53.0792 78.4234 52.5365 78.4638 52.0117H61.7835L58.8777 60.5923H49.4821L66.0591 14.8409H77.8036L87.1094 40.52C88.006 40.2318 88.9255 40.0202 89.858 39.8876L79.7708 12.033ZM63.9617 45.6738H79.8381L71.8528 22.1163L63.9617 45.6738ZM75.9353 42.9018H67.8511L71.8707 30.9077L75.9353 42.9018Z" fill="#233974"/>
<path d="M128.774 44.7857C128.015 46.4643 126.762 47.8724 125.181 48.8226C123.561 49.7651 121.712 50.246 119.837 50.213C116.581 50.213 114.021 49.1231 112.018 46.8804C110.015 44.6376 108.982 41.4978 108.982 37.6404C108.982 33.7829 110.006 30.6655 112.018 28.4049C114.03 26.1442 116.581 25.0677 119.837 25.0677C121.713 25.0363 123.561 25.5188 125.181 26.4627C126.763 27.4115 128.016 28.82 128.774 30.4996L129.156 31.2935H144.875L144.426 29.5397C142.967 23.9912 140.016 19.5461 135.664 16.3211C131.312 13.0961 126.048 11.5038 119.994 11.5038C115.338 11.4352 110.744 12.5825 106.669 14.8319C102.776 17.0125 99.5772 20.2444 97.4392 24.1572C95.2069 28.3051 94.0736 32.9542 94.1472 37.6628C94.1472 38.3625 94.1696 39.0488 94.2145 39.7261C95.1729 39.7841 96.1235 39.9343 97.053 40.1746C96.9856 39.3493 96.9497 38.5061 96.9497 37.6493C96.8765 33.4133 97.8891 29.2289 99.8914 25.4938C101.782 22.0369 104.608 19.1813 108.047 17.2541C111.703 15.2414 115.821 14.2178 119.994 14.2847C125.433 14.2847 130.14 15.729 133.984 18.5773C137.343 21.0705 139.852 24.5363 141.17 28.5035H130.89C129.891 26.6743 128.423 25.1433 126.637 24.0674C124.582 22.8624 122.237 22.242 119.855 22.2733C115.813 22.2733 112.476 23.7131 109.947 26.5479C107.419 29.3827 106.197 33.0697 106.197 37.6449C106.197 42.22 107.459 45.9564 109.947 48.7418C112.435 51.5273 115.786 53.0164 119.855 53.0164C122.237 53.0491 124.583 52.4286 126.637 51.2223C128.426 50.1497 129.894 48.6178 130.89 46.7862H141.175C139.858 50.7379 137.347 54.1852 133.989 56.6541C130.144 59.4799 125.455 60.9153 119.994 60.9153C115.821 60.9828 111.702 59.9591 108.047 57.9459C107.192 57.4675 106.371 56.9294 105.591 56.3357C105.353 57.1409 105.026 57.9172 104.616 58.6501C104.558 58.7533 104.495 58.8565 104.432 58.9596C105.155 59.4727 105.905 59.9473 106.678 60.3815C110.752 62.6335 115.347 63.7809 120.003 63.7097C126.053 63.7097 131.321 62.095 135.655 58.9103C139.989 55.7256 142.962 51.2851 144.422 45.7231L144.871 43.9693H129.152L128.774 44.7857Z" fill="#233974"/>
<path d="M190.403 63.3868H169.635L160.806 51.5228V63.3868H146.16V12.033H160.806V23.749L169.496 12.033H189.706L169.756 37.2277L190.403 63.3868ZM171.041 60.5923H184.631L166.217 37.2232L183.949 14.8319H170.924L158.021 32.222V14.8319H148.962V60.5834H158.003V43.0722L171.041 60.5923Z" fill="#233974"/>
<path d="M91.4479 94.7489V100.517C91.4479 104.554 90.5856 108.021 88.8835 110.784C87.245 113.485 84.8605 115.657 82.0164 117.037C78.9544 118.492 75.5982 119.224 72.2076 119.177C68.8674 119.235 65.5595 118.515 62.547 117.073C59.7793 115.702 57.4872 113.533 55.9674 110.847C54.3461 108.062 53.5242 104.568 53.5242 100.531V72.9542H62.5785V100.607C62.5785 103.859 63.4273 106.438 65.0935 108.255C66.7598 110.071 69.2614 111.067 72.4277 111.067C75.594 111.067 78.0776 110.125 79.8202 108.272C81.5628 106.42 82.4206 103.863 82.4206 100.607V93.0893C81.4326 92.6555 80.4932 92.1188 79.6181 91.488V100.589C79.6181 103.11 78.9983 105.047 77.7812 106.339C76.5641 107.631 74.817 108.25 72.4277 108.25C70.0384 108.25 68.3272 107.631 67.164 106.353C66.0008 105.074 65.3675 103.119 65.3675 100.589V70.1373H50.7217V100.517C50.7217 105.083 51.6738 109.039 53.5422 112.251C55.3364 115.42 58.0393 117.981 61.303 119.603C64.7024 121.235 68.4359 122.056 72.2076 121.998C76.0238 122.037 79.7977 121.199 83.238 119.549C86.56 117.939 89.3455 115.405 91.2593 112.251C93.2354 109.039 94.237 105.097 94.237 100.517V94.574C93.3111 94.6826 92.3801 94.741 91.4479 94.7489Z" fill="#233974"/>
<path d="M131.406 70.1373V96.9512L116.891 74.8964C116.711 75.7934 116.504 76.6367 116.253 77.4665C116.145 77.8164 116.033 78.1618 115.912 78.5027L134.209 106.312V72.9542H143.25V118.706H133.562L117.218 93.9909H111.6V118.706H102.55V91.9814C101.642 92.4567 100.706 92.8776 99.7477 93.2418V121.5H114.393V94.7982L132.048 121.491H146.043V70.1373H131.406Z" fill="#233974"/>
<path d="M178.119 121.491H163.474V82.4095H150.606V70.1373H191.027V82.4095H178.119V121.491ZM166.276 118.706H175.308V79.615H188.198V72.9542H153.391V79.633H166.276V118.706Z" fill="#233974"/>
<path d="M83.1661 65.2572C81.7455 63.3809 80.5403 61.3512 79.5731 59.2063C78.801 57.4499 78.399 55.5536 78.3919 53.6354C78.3919 49.1709 79.6929 45.7321 82.2948 43.3189C84.8967 40.9058 88.4687 39.6932 93.0108 39.6812C96.9032 39.6812 100.077 40.8878 102.532 43.301C103.713 44.4337 104.648 45.7974 105.277 47.3069C105.907 48.8164 106.219 50.4394 106.192 52.0745C106.252 54.3776 105.713 56.6568 104.63 58.6905C103.451 60.7099 101.88 62.473 100.008 63.8757L96.2624 66.5086L106.201 78.09C107.101 76.6097 107.795 75.0149 108.267 73.3489C108.765 71.5768 109.013 69.7441 109.004 67.9036H117.582C117.617 71.1379 117.177 74.3598 116.275 77.4665C115.448 80.2755 114.064 82.8899 112.206 85.1546L119.608 93.7935L119.531 93.9774H107.58L104.746 90.7075C102.749 92.0121 100.58 93.0326 98.3014 93.7397C95.9965 94.4276 93.6019 94.7693 91.1964 94.7534C85.8428 94.7534 81.5837 93.3494 78.4189 90.5416C75.2541 87.7337 73.6702 84.0736 73.6672 79.5612C73.5892 76.8418 74.4117 74.1725 76.0071 71.9674C77.567 69.8712 79.9534 67.6345 83.1661 65.2572ZM91.7443 86.5136C94.425 86.5059 97.0604 85.8224 99.4063 84.5266L88.5421 71.9674L88.2097 72.2275C86.9768 73.1494 85.9592 74.3278 85.2275 75.6813C84.7096 76.7218 84.4333 77.8656 84.4191 79.0275C84.3836 80.0138 84.5444 80.9974 84.8921 81.9213C85.2398 82.8453 85.7675 83.6911 86.4447 84.41C87.1301 85.1133 87.9565 85.6642 88.8697 86.0267C89.7829 86.3892 90.7625 86.5551 91.7443 86.5136ZM87.9896 53.5278C88.0057 54.6223 88.2569 55.7007 88.7262 56.69C89.3336 57.9505 90.0873 59.1353 90.9718 60.22L93.7698 58.4259C95.1441 57.5288 96.0708 56.6212 96.5499 55.7032C97.0332 54.7596 97.2798 53.7129 97.2685 52.6531C97.2843 51.4439 96.8524 50.2715 96.0558 49.3608C95.64 48.8882 95.1228 48.5154 94.5427 48.27C93.9626 48.0246 93.3346 47.9129 92.7054 47.9434C92.0404 47.9155 91.3785 48.0481 90.7757 48.33C90.1729 48.6119 89.6471 49.0347 89.2427 49.5627C88.3882 50.7049 87.9465 52.1026 87.9896 53.5278Z" fill="#FBAE40"/>
</g>
<defs>
<clipPath id="clip0_27_532">
<rect width="190.971" height="133.235" fill="white" transform="translate(0.0294189 0.142151)"/>
</clipPath>
</defs>
</svg>
