<svg width="430" height="781" viewBox="0 0 430 781" fill="none" xmlns="http://www.w3.org/2000/svg">
<g clip-path="url(#clip0_365_986)">
<path d="M344.15 238.77C322.8 240.77 300.53 236.25 283.15 252.42C272.59 262.24 268.15 276.93 265.9 291.18C264.81 298.18 264.14 305.43 261.41 312.02C256.49 323.92 246.18 327.35 234.25 328.5C198.42 331.95 162.67 329.42 126.81 330.68C111.19 331.23 91.3101 330.3 77.8101 338.87C65.5801 346.63 56.7401 357.59 53.7501 372.03C50.4601 387.93 53.1301 406.08 63.9401 418.67C74.7501 431.26 91.9401 432.28 107.49 432.22C150.73 432.027 193.973 431.93 237.22 431.93C251.6 431.93 266.38 432.01 279.77 437.26C333.98 458.57 323.87 543.93 262.88 543.93C225.76 543.93 186.57 539.87 152.67 558.11C134.11 568.11 118.43 584.11 110.73 603.7C104.05 620.7 103.55 639.43 104.18 657.7C105.68 700.7 116.86 744.11 159.44 763.1C172.943 769.013 187.539 772.022 202.28 771.93H280.54C312.75 771.93 338.54 799.64 335.09 831.66C335.03 832.28 334.95 832.91 334.86 833.53C330.75 862.53 305.86 875.09 279.43 879.1C245.94 884.16 210.13 882.79 176.43 883.1C157.95 883.26 139.23 881.25 120.81 883.1C100.5 885.2 76.5401 895.36 69.0901 916.1C62.9701 933.1 69.9901 952.92 83.1501 965.27C101.28 982.27 124.28 984.18 147.71 984.98C175.16 985.92 202.62 987.21 230.1 986.64C237.38 986.49 245.1 987.26 251.02 991.47C262.07 999.3 260.96 1011.16 263.08 1022.85C265.785 1038.22 273.488 1052.26 284.991 1062.8C296.495 1073.34 311.157 1079.79 326.7 1081.14C339.23 1082.24 353.08 1080.33 363.28 1087.69C371.69 1093.76 375.11 1104.49 377.51 1114.58C381.636 1132.04 384.259 1149.82 385.35 1167.73C386.06 1179.22 386.12 1190.9 383.47 1202.11C380.82 1213.32 375.25 1224.11 366.29 1231.37C356.52 1239.27 343.66 1242.27 331.14 1243.3C318.62 1244.33 305.97 1243.63 293.51 1245.2C284.12 1246.39 274.51 1249.09 267.51 1255.51C259.37 1263.04 256.17 1274.44 254.22 1285.35C252.27 1296.26 251.1 1307.63 245.78 1317.35C233.63 1339.56 200.65 1333.28 179.24 1333.28H125.46C102.91 1333.28 79.5701 1347.68 69.6601 1367.98C61.8601 1383.98 63.3001 1404.86 75.5501 1417.73C87.8001 1430.6 107.35 1433.17 125.2 1434.31C158.97 1436.48 192.84 1436.62 226.67 1437.53C252.47 1438.22 280.67 1440.32 299.46 1458C314.19 1471.86 320.14 1494.33 314.19 1513.65C310.801 1524.9 303.608 1534.63 293.84 1541.17C283.75 1547.75 271.5 1550.17 259.49 1551.08C229.87 1553.33 199.32 1547.93 170.61 1557.69C147.17 1565.69 124.8 1581.35 113.61 1603.93C104.35 1622.56 103.36 1644.15 104.03 1664.93C104.95 1693.63 109.42 1724.01 127.88 1746.01C139.83 1760.26 156.81 1769.73 174.72 1774.74C197.48 1781.1 221.24 1779.83 244.58 1778.96C265.58 1778.17 288.08 1775.74 307.12 1786.47C319.48 1793.47 329.33 1805.04 333.36 1818.65C340.75 1843.56 326.16 1872.49 302.36 1882.88C287.58 1889.32 270.91 1889.22 254.79 1889.12C215.683 1888.85 176.573 1889.13 137.46 1889.94C118.2 1890.33 97.5601 1891.42 82.4601 1904.85C60.7501 1924.12 63.9401 1955.67 85.3601 1973.85C97.9701 1984.53 114.5 1989.59 130.92 1991.42C147.34 1993.25 163.92 1992.14 180.43 1991.87C193.74 1991.66 207.63 1992.14 219.36 1998.42C230.6 2004.42 238.67 2015.23 243.77 2026.91C249.77 2040.67 252.96 2055.67 255.38 2070.43C259.09 2093.03 251.74 2126.02 274.32 2140.76C299.59 2157.26 333.44 2143.56 357.75 2163.42C367.04 2171.01 372.96 2182.15 375.98 2193.76C379 2205.37 379.32 2217.51 378.98 2229.5C378.47 2246.79 376.34 2264.73 367.17 2279.41C354.95 2298.95 332.43 2309.41 310.45 2316.34C256.83 2333.34 199.83 2334 143.45 2333.88" stroke="#231F20" stroke-width="37.5" stroke-miterlimit="10"/>
<path d="M344.15 238.77C322.8 240.77 300.53 236.25 283.15 252.42C272.59 262.24 268.15 276.93 265.9 291.18C264.81 298.18 264.14 305.43 261.41 312.02C256.49 323.92 246.18 327.35 234.25 328.5C198.42 331.95 162.67 329.42 126.81 330.68C111.19 331.23 91.3101 330.3 77.8101 338.87C65.5801 346.63 56.7401 357.59 53.7501 372.03C50.4601 387.93 53.1301 406.08 63.9401 418.67C74.7501 431.26 91.9401 432.28 107.49 432.22C150.73 432.027 193.973 431.93 237.22 431.93C251.6 431.93 266.38 432.01 279.77 437.26C333.98 458.57 323.87 543.93 262.88 543.93C225.76 543.93 186.57 539.87 152.67 558.11C134.11 568.11 118.43 584.11 110.73 603.7C104.05 620.7 103.55 639.43 104.18 657.7C105.68 700.7 116.86 744.11 159.44 763.1C172.943 769.013 187.539 772.022 202.28 771.93H280.54C312.75 771.93 338.54 799.64 335.09 831.66C335.03 832.28 334.95 832.91 334.86 833.53C330.75 862.53 305.86 875.09 279.43 879.1C245.94 884.16 210.13 882.79 176.43 883.1C157.95 883.26 139.23 881.25 120.81 883.1C100.5 885.2 76.5401 895.36 69.0901 916.1C62.9701 933.1 69.9901 952.92 83.1501 965.27C101.28 982.27 124.28 984.18 147.71 984.98C175.16 985.92 202.62 987.21 230.1 986.64C237.38 986.49 245.1 987.26 251.02 991.47C262.07 999.3 260.96 1011.16 263.08 1022.85C265.785 1038.22 273.488 1052.26 284.991 1062.8C296.495 1073.34 311.157 1079.79 326.7 1081.14C339.23 1082.24 353.08 1080.33 363.28 1087.69C371.69 1093.76 375.11 1104.49 377.51 1114.58C381.636 1132.04 384.259 1149.82 385.35 1167.73C386.06 1179.22 386.12 1190.9 383.47 1202.11C380.82 1213.32 375.25 1224.11 366.29 1231.37C356.52 1239.27 343.66 1242.27 331.14 1243.3C318.62 1244.33 305.97 1243.63 293.51 1245.2C284.12 1246.39 274.51 1249.09 267.51 1255.51C259.37 1263.04 256.17 1274.44 254.22 1285.35C252.27 1296.26 251.1 1307.63 245.78 1317.35C233.63 1339.56 200.65 1333.28 179.24 1333.28H125.46C102.91 1333.28 79.5701 1347.68 69.6601 1367.98C61.8601 1383.98 63.3001 1404.86 75.5501 1417.73C87.8001 1430.6 107.35 1433.17 125.2 1434.31C158.97 1436.48 192.84 1436.62 226.67 1437.53C252.47 1438.22 280.67 1440.32 299.46 1458C314.19 1471.86 320.14 1494.33 314.19 1513.65C310.801 1524.9 303.608 1534.63 293.84 1541.17C283.75 1547.75 271.5 1550.17 259.49 1551.08C229.87 1553.33 199.32 1547.93 170.61 1557.69C147.17 1565.69 124.8 1581.35 113.61 1603.93C104.35 1622.56 103.36 1644.15 104.03 1664.93C104.95 1693.63 109.42 1724.01 127.88 1746.01C139.83 1760.26 156.81 1769.73 174.72 1774.74C197.48 1781.1 221.24 1779.83 244.58 1778.96C265.58 1778.17 288.08 1775.74 307.12 1786.47C319.48 1793.47 329.33 1805.04 333.36 1818.65C340.75 1843.56 326.16 1872.49 302.36 1882.88C287.58 1889.32 270.91 1889.22 254.79 1889.12C215.683 1888.85 176.573 1889.13 137.46 1889.94C118.2 1890.33 97.5601 1891.42 82.4601 1904.85C60.7501 1924.12 63.9401 1955.67 85.3601 1973.85C97.9701 1984.53 114.5 1989.59 130.92 1991.42C147.34 1993.25 163.92 1992.14 180.43 1991.87C193.74 1991.66 207.63 1992.14 219.36 1998.42C230.6 2004.42 238.67 2015.23 243.77 2026.91C249.77 2040.67 252.96 2055.67 255.38 2070.43C259.09 2093.03 251.74 2126.02 274.32 2140.76C299.59 2157.26 333.44 2143.56 357.75 2163.42C367.04 2171.01 372.96 2182.15 375.98 2193.76C379 2205.37 379.32 2217.51 378.98 2229.5C378.47 2246.79 376.34 2264.73 367.17 2279.41C354.95 2298.95 332.43 2309.41 310.45 2316.34C256.83 2333.34 199.83 2334 143.45 2333.88" stroke="white" stroke-width="31.25" stroke-miterlimit="10"/>
<path d="M344.15 238.77C322.8 240.77 300.53 236.25 283.15 252.42C272.59 262.24 268.15 276.93 265.9 291.18C264.81 298.18 264.14 305.43 261.41 312.02C256.49 323.92 246.18 327.35 234.25 328.5C198.42 331.95 162.67 329.42 126.81 330.68C111.19 331.23 91.3101 330.3 77.8101 338.87C65.5801 346.63 56.7401 357.59 53.7501 372.03C50.4601 387.93 53.1301 406.08 63.9401 418.67C74.7501 431.26 91.9401 432.28 107.49 432.22C150.73 432.027 193.973 431.93 237.22 431.93C251.6 431.93 266.38 432.01 279.77 437.26C333.98 458.57 323.87 543.93 262.88 543.93C225.76 543.93 186.57 539.87 152.67 558.11C134.11 568.11 118.43 584.11 110.73 603.7C104.05 620.7 103.55 639.43 104.18 657.7C105.68 700.7 116.86 744.11 159.44 763.1C172.943 769.013 187.539 772.022 202.28 771.93H280.54C312.75 771.93 338.54 799.64 335.09 831.66C335.03 832.28 334.95 832.91 334.86 833.53C330.75 862.53 305.86 875.09 279.43 879.1C245.94 884.16 210.13 882.79 176.43 883.1C157.95 883.26 139.23 881.25 120.81 883.1C100.5 885.2 76.5401 895.36 69.0901 916.1C62.9701 933.1 69.9901 952.92 83.1501 965.27C101.28 982.27 124.28 984.18 147.71 984.98C175.16 985.92 202.62 987.21 230.1 986.64C237.38 986.49 245.1 987.26 251.02 991.47C262.07 999.3 260.96 1011.16 263.08 1022.85C265.785 1038.22 273.488 1052.26 284.991 1062.8C296.495 1073.34 311.157 1079.79 326.7 1081.14C339.23 1082.24 353.08 1080.33 363.28 1087.69C371.69 1093.76 375.11 1104.49 377.51 1114.58C381.636 1132.04 384.259 1149.82 385.35 1167.73C386.06 1179.22 386.12 1190.9 383.47 1202.11C380.82 1213.32 375.25 1224.11 366.29 1231.37C356.52 1239.27 343.66 1242.27 331.14 1243.3C318.62 1244.33 305.97 1243.63 293.51 1245.2C284.12 1246.39 274.51 1249.09 267.51 1255.51C259.37 1263.04 256.17 1274.44 254.22 1285.35C252.27 1296.26 251.1 1307.63 245.78 1317.35C233.63 1339.56 200.65 1333.28 179.24 1333.28H125.46C102.91 1333.28 79.5701 1347.68 69.6601 1367.98C61.8601 1383.98 63.3001 1404.86 75.5501 1417.73C87.8001 1430.6 107.35 1433.17 125.2 1434.31C158.97 1436.48 192.84 1436.62 226.67 1437.53C252.47 1438.22 280.67 1440.32 299.46 1458C314.19 1471.86 320.14 1494.33 314.19 1513.65C310.801 1524.9 303.608 1534.63 293.84 1541.17C283.75 1547.75 271.5 1550.17 259.49 1551.08C229.87 1553.33 199.32 1547.93 170.61 1557.69C147.17 1565.69 124.8 1581.35 113.61 1603.93C104.35 1622.56 103.36 1644.15 104.03 1664.93C104.95 1693.63 109.42 1724.01 127.88 1746.01C139.83 1760.26 156.81 1769.73 174.72 1774.74C197.48 1781.1 221.24 1779.83 244.58 1778.96C265.58 1778.17 288.08 1775.74 307.12 1786.47C319.48 1793.47 329.33 1805.04 333.36 1818.65C340.75 1843.56 326.16 1872.49 302.36 1882.88C287.58 1889.32 270.91 1889.22 254.79 1889.12C215.683 1888.85 176.573 1889.13 137.46 1889.94C118.2 1890.33 97.5601 1891.42 82.4601 1904.85C60.7501 1924.12 63.9401 1955.67 85.3601 1973.85C97.9701 1984.53 114.5 1989.59 130.92 1991.42C147.34 1993.25 163.92 1992.14 180.43 1991.87C193.74 1991.66 207.63 1992.14 219.36 1998.42C230.6 2004.42 238.67 2015.23 243.77 2026.91C249.77 2040.67 252.96 2055.67 255.38 2070.43C259.09 2093.03 251.74 2126.02 274.32 2140.76C299.59 2157.26 333.44 2143.56 357.75 2163.42C367.04 2171.01 372.96 2182.15 375.98 2193.76C379 2205.37 379.32 2217.51 378.98 2229.5C378.47 2246.79 376.34 2264.73 367.17 2279.41C354.95 2298.95 332.43 2309.41 310.45 2316.34C256.83 2333.34 199.83 2334 143.45 2333.88" stroke="#231F20" stroke-width="27.5" stroke-miterlimit="10"/>
<path d="M344.15 238.77C341.88 238.99 339.59 239.12 337.29 239.22" stroke="#FFAF3E" stroke-width="2.5" stroke-miterlimit="10"/>
<path d="M323.52 239.58C309.02 239.99 294.95 241.44 283.13 252.42C272.57 262.24 268.13 276.93 265.88 291.18C264.79 298.18 264.12 305.43 261.39 312.02C256.47 323.92 246.16 327.35 234.23 328.5C198.4 331.95 162.65 329.42 126.79 330.68C111.17 331.23 91.2901 330.3 77.7901 338.87C65.5601 346.63 56.7201 357.59 53.7301 372.03C50.4401 387.93 53.1101 406.08 63.9201 418.67C74.7301 431.26 91.9201 432.28 107.47 432.22C150.723 432.027 193.973 431.93 237.22 431.93C251.6 431.93 266.38 432.01 279.77 437.26C333.98 458.57 323.87 543.93 262.88 543.93C225.76 543.93 186.57 539.87 152.67 558.11C134.11 568.11 118.43 584.11 110.73 603.7C104.05 620.7 103.55 639.43 104.18 657.7C105.68 700.7 116.86 744.11 159.44 763.1C172.943 769.013 187.539 772.022 202.28 771.93H280.54C312.75 771.93 338.54 799.64 335.09 831.66C335.03 832.28 334.95 832.91 334.86 833.53C330.75 862.53 305.86 875.09 279.43 879.1C245.94 884.16 210.13 882.79 176.43 883.1C157.95 883.26 139.23 881.25 120.81 883.1C100.5 885.2 76.5401 895.36 69.0901 916.1C62.9701 933.1 69.9901 952.92 83.1501 965.27C101.28 982.27 124.28 984.18 147.71 984.98C175.16 985.92 202.62 987.21 230.1 986.64C237.38 986.49 245.1 987.26 251.02 991.47C262.07 999.3 260.96 1011.16 263.08 1022.85C265.785 1038.22 273.488 1052.26 284.991 1062.8C296.495 1073.34 311.157 1079.79 326.7 1081.14C339.23 1082.24 353.08 1080.33 363.28 1087.69C371.69 1093.76 375.11 1104.49 377.51 1114.58C381.636 1132.04 384.259 1149.82 385.35 1167.73C386.06 1179.22 386.12 1190.9 383.47 1202.11C380.82 1213.32 375.25 1224.11 366.29 1231.37C356.52 1239.27 343.66 1242.27 331.14 1243.3C318.62 1244.33 305.97 1243.63 293.51 1245.2C284.12 1246.39 274.51 1249.09 267.51 1255.51C259.37 1263.04 256.17 1274.44 254.22 1285.35C252.27 1296.26 251.1 1307.63 245.78 1317.35C233.63 1339.56 200.65 1333.28 179.24 1333.28H125.46C102.91 1333.28 79.5701 1347.68 69.6601 1367.98C61.8601 1383.98 63.3001 1404.86 75.5501 1417.73C87.8001 1430.6 107.35 1433.17 125.2 1434.31C158.97 1436.48 192.84 1436.62 226.67 1437.53C252.47 1438.22 280.67 1440.32 299.46 1458C314.19 1471.86 320.14 1494.33 314.19 1513.65C310.801 1524.9 303.608 1534.63 293.84 1541.17C283.75 1547.75 271.5 1550.17 259.49 1551.08C229.87 1553.33 199.32 1547.93 170.61 1557.69C147.17 1565.69 124.8 1581.35 113.61 1603.93C104.35 1622.56 103.36 1644.15 104.03 1664.93C104.95 1693.63 109.42 1724.01 127.88 1746.01C139.83 1760.26 156.81 1769.73 174.72 1774.74C197.48 1781.1 221.24 1779.83 244.58 1778.96C265.58 1778.17 288.08 1775.74 307.12 1786.47C319.48 1793.47 329.33 1805.04 333.36 1818.65C340.75 1843.56 326.16 1872.49 302.36 1882.88C287.58 1889.32 270.91 1889.22 254.79 1889.12C215.683 1888.85 176.573 1889.13 137.46 1889.94C118.2 1890.33 97.5601 1891.42 82.4601 1904.85C60.7501 1924.12 63.9401 1955.67 85.3601 1973.85C97.9701 1984.53 114.5 1989.59 130.92 1991.42C147.34 1993.25 163.92 1992.14 180.43 1991.87C193.74 1991.66 207.63 1992.14 219.36 1998.42C230.6 2004.42 238.67 2015.23 243.77 2026.91C249.77 2040.67 252.96 2055.67 255.38 2070.43C259.09 2093.03 251.74 2126.02 274.32 2140.76C299.59 2157.26 333.44 2143.56 357.75 2163.42C367.04 2171.01 372.96 2182.15 375.98 2193.76C379 2205.37 379.32 2217.51 378.98 2229.5C378.47 2246.79 376.34 2264.73 367.17 2279.41C354.95 2298.95 332.43 2309.41 310.45 2316.34C261.2 2331.94 209.08 2333.78 157.25 2333.88" stroke="#FFAF3E" stroke-width="2.5" stroke-miterlimit="10" stroke-dasharray="13.78 13.78"/>
<path d="M1.34976 54H65.0398C65.0398 54 99.8997 78.31 65.0398 105.82C35.6898 116.37 40.9398 137.01 40.9398 137.01V176.01C40.9398 176.01 36.2498 212.39 1.34976 218.5C-33.5502 224.61 -32.1802 169.93 -32.1802 169.93V54H1.34976Z" fill="#0097A6" fill-opacity="0.4"/>
<path d="M431.35 81.93C431.35 81.93 398.9 109.33 401.2 136.45C403.5 163.57 401.08 253.67 401.08 253.67C401.08 253.67 394.23 275.46 361.25 275.46C337.73 275.46 323.25 332.33 354.88 346.55C386.51 360.77 382.39 330.55 405.32 389.65C428.25 448.75 486.96 377.73 486.96 377.73L489.71 92.94C489.71 92.94 458.75 57.21 431.35 81.93Z" fill="#0097A6" fill-opacity="0.4"/>
<path d="M-18.67 635.93C17.4108 635.93 46.66 606.681 46.66 570.6C46.66 534.519 17.4108 505.27 -18.67 505.27C-54.7508 505.27 -84 534.519 -84 570.6C-84 606.681 -54.7508 635.93 -18.67 635.93Z" fill="#0097A6" fill-opacity="0.4"/>
<path d="M351.65 691.07C349.653 687.475 348.038 683.681 346.83 679.75C344.53 672.24 342.83 663.75 344.83 656.03C347.83 644.6 358.18 636.56 368.96 631.73C378.03 627.66 388.48 625.73 396.96 632.43C401.48 636.01 404.38 641.24 406.57 646.58C409.52 653.78 411 664.3 419.06 667.7C427.69 671.33 438.51 665.91 445.52 661.01C453.61 655.35 462.7 649.78 472.92 649.9C482.26 650 490.92 654.9 497.99 661.03C503.368 665.462 507.79 670.939 510.99 677.13C513.56 682.42 515.27 688.73 514.04 694.61C512.62 701.42 507.82 704.67 501.94 707.54C488.64 714.03 473.57 716.88 461.28 725.38C450.143 733.05 441.648 743.976 436.96 756.66C434.3 764.02 432.54 772.52 426.13 777.01C422.56 779.52 418.07 780.33 413.71 780.5C406.734 780.883 399.77 779.537 393.44 776.58C389.04 774.43 384.98 771.27 382.65 766.96C379.29 760.77 380.19 753.77 380.2 747.03C380.2 739.25 379.75 731.33 377.41 723.86C374.93 715.91 368.41 710.42 362.49 704.95C358.172 700.919 354.514 696.236 351.65 691.07Z" fill="#0097A6" fill-opacity="0.4"/>
<path d="M204.6 279.46C200.761 279.463 197.08 280.987 194.364 283.7C191.648 286.412 190.118 290.091 190.11 293.93C190.11 297.24 192.51 302.71 197.25 310.2C197.72 310.96 198.2 311.7 198.68 312.41L199.06 312.99C201.88 317.22 204.32 320.41 204.35 320.45L204.6 320.77L204.85 320.45C204.85 320.45 207.31 317.22 210.13 312.99L210.52 312.41C210.99 311.7 211.52 310.96 211.95 310.2C216.68 302.71 219.08 297.2 219.08 293.93C219.072 290.093 217.544 286.416 214.829 283.703C212.115 280.991 208.437 279.465 204.6 279.46ZM204.6 300.98C203.215 300.98 201.862 300.569 200.711 299.8C199.56 299.031 198.663 297.938 198.133 296.659C197.603 295.38 197.464 293.972 197.734 292.614C198.004 291.256 198.671 290.009 199.65 289.03C200.629 288.051 201.876 287.385 203.234 287.114C204.592 286.844 206 286.983 207.279 287.513C208.558 288.043 209.651 288.94 210.42 290.091C211.189 291.242 211.6 292.596 211.6 293.98C211.587 295.832 210.845 297.605 209.535 298.915C208.225 300.225 206.452 300.967 204.6 300.98Z" fill="#FBAE40"/>
<path d="M313.07 413.17C309.229 413.173 305.547 414.699 302.83 417.413C300.114 420.128 298.585 423.81 298.58 427.65C298.58 430.96 300.98 436.43 305.72 443.92C306.2 444.67 306.72 445.42 307.15 446.13L307.53 446.71C310.36 450.94 312.79 454.13 312.82 454.17L313.07 454.49L313.32 454.17C313.32 454.17 315.78 450.94 318.61 446.71L318.99 446.13C319.46 445.42 319.94 444.67 320.42 443.92C325.16 436.43 327.56 430.92 327.56 427.65C327.554 423.81 326.026 420.128 323.309 417.413C320.593 414.699 316.91 413.173 313.07 413.17ZM313.07 434.69C311.685 434.69 310.332 434.279 309.181 433.51C308.029 432.741 307.132 431.648 306.602 430.369C306.073 429.09 305.934 427.682 306.204 426.324C306.474 424.967 307.141 423.719 308.12 422.74C309.099 421.761 310.346 421.095 311.704 420.825C313.062 420.554 314.469 420.693 315.748 421.223C317.027 421.753 318.121 422.65 318.89 423.801C319.659 424.952 320.07 426.306 320.07 427.69C320.056 429.542 319.315 431.315 318.005 432.625C316.695 433.935 314.922 434.677 313.07 434.69Z" fill="#0097A6"/>
<path d="M124.26 532.38C120.421 532.385 116.741 533.913 114.027 536.627C111.312 539.341 109.785 543.021 109.78 546.86C109.78 550.17 112.18 555.64 116.91 563.13C117.39 563.88 117.91 564.63 118.34 565.34L118.73 565.92C121.55 570.15 123.99 573.34 124.02 573.38L124.26 573.7L124.51 573.38C124.51 573.38 126.98 570.15 129.8 565.92L130.19 565.34C130.66 564.63 131.14 563.88 131.62 563.13C136.35 555.64 138.75 550.13 138.75 546.86C138.744 543.02 137.216 539.338 134.499 536.623C131.783 533.909 128.1 532.383 124.26 532.38ZM124.26 553.9C122.875 553.9 121.522 553.489 120.371 552.72C119.22 551.951 118.322 550.858 117.793 549.579C117.263 548.3 117.124 546.892 117.394 545.534C117.664 544.176 118.331 542.929 119.31 541.95C120.289 540.971 121.536 540.305 122.894 540.034C124.252 539.764 125.659 539.903 126.939 540.433C128.218 540.963 129.311 541.86 130.08 543.011C130.849 544.162 131.26 545.516 131.26 546.9C131.264 547.822 131.086 548.735 130.736 549.588C130.386 550.441 129.871 551.216 129.22 551.869C128.57 552.522 127.797 553.041 126.946 553.394C126.094 553.748 125.182 553.93 124.26 553.93V553.9Z" fill="#FBAE40"/>
<path d="M341.11 254.6C356.104 254.6 368.26 242.445 368.26 227.45C368.26 212.455 356.104 200.3 341.11 200.3C326.115 200.3 313.96 212.455 313.96 227.45C313.96 242.445 326.115 254.6 341.11 254.6Z" fill="#FBAE40"/>
<path d="M341.11 257.81C335.103 257.812 329.229 256.032 324.234 252.696C319.238 249.36 315.344 244.617 313.044 239.067C310.744 233.517 310.142 227.41 311.313 221.518C312.485 215.625 315.377 210.213 319.625 205.965C323.873 201.717 329.285 198.825 335.178 197.653C341.07 196.482 347.177 197.084 352.727 199.384C358.276 201.684 363.02 205.578 366.356 210.574C369.692 215.569 371.472 221.443 371.47 227.45C371.459 235.499 368.257 243.215 362.566 248.906C356.875 254.597 349.159 257.799 341.11 257.81ZM341.11 201.67C336.011 201.67 331.027 203.182 326.787 206.015C322.548 208.847 319.244 212.874 317.292 217.584C315.341 222.295 314.831 227.479 315.825 232.479C316.82 237.48 319.275 242.074 322.881 245.679C326.486 249.285 331.08 251.74 336.081 252.735C341.081 253.729 346.265 253.219 350.976 251.268C355.686 249.316 359.713 246.012 362.545 241.773C365.378 237.533 366.89 232.549 366.89 227.45C366.885 220.614 364.167 214.06 359.333 209.227C354.5 204.393 347.946 201.675 341.11 201.67Z" fill="#FBAE40"/>
<path d="M341.11 255.48C335.572 255.48 330.158 253.838 325.554 250.761C320.949 247.684 317.361 243.311 315.241 238.195C313.122 233.079 312.567 227.449 313.648 222.017C314.728 216.586 317.395 211.597 321.311 207.681C325.227 203.765 330.216 201.098 335.647 200.018C341.079 198.938 346.709 199.492 351.825 201.611C356.941 203.731 361.314 207.319 364.391 211.924C367.468 216.529 369.11 221.942 369.11 227.48C369.094 234.901 366.139 242.014 360.891 247.261C355.644 252.509 348.531 255.464 341.11 255.48ZM341.11 201.18C335.913 201.174 330.831 202.71 326.507 205.593C322.183 208.476 318.811 212.576 316.818 217.376C314.825 222.176 314.301 227.459 315.311 232.557C316.321 237.654 318.821 242.338 322.494 246.015C326.166 249.692 330.847 252.197 335.944 253.213C341.041 254.229 346.324 253.711 351.126 251.723C355.928 249.736 360.033 246.369 362.92 242.048C365.808 237.727 367.35 232.647 367.35 227.45C367.342 220.49 364.576 213.818 359.657 208.894C354.739 203.97 348.069 201.196 341.11 201.18Z" fill="white"/>
<path d="M323.01 227.09C323.097 226.78 323.204 226.476 323.33 226.18C323.439 225.892 323.573 225.615 323.73 225.35L322.35 224.58C322.171 224.922 322.017 225.276 321.89 225.64C321.768 225.994 321.665 226.355 321.58 226.72C321.411 227.444 321.333 228.187 321.35 228.93C321.354 229.695 321.479 230.454 321.72 231.18C321.97 231.905 322.342 232.581 322.82 233.18C323.766 234.332 324.977 235.238 326.35 235.82C327.01 236.13 327.72 236.34 328.35 236.58C328.98 236.82 329.65 237.05 330.3 237.3C332.873 238.295 335.245 239.749 337.3 241.59C338.326 242.515 339.197 243.599 339.88 244.8C340.59 245.994 340.999 247.343 341.07 248.73C341.066 247.335 340.723 245.963 340.07 244.73C339.435 243.471 338.601 242.323 337.6 241.33C335.576 239.337 333.204 237.734 330.6 236.6C329.95 236.31 329.29 236.05 328.6 235.78C327.91 235.51 327.32 235.27 326.72 234.96C325.541 234.4 324.513 233.567 323.72 232.53C323.002 231.494 322.65 230.248 322.72 228.99C322.736 228.347 322.833 227.709 323.01 227.09Z" fill="white"/>
<path d="M344.86 241.59C346.915 239.749 349.286 238.295 351.86 237.3C352.5 237.05 353.16 236.82 353.81 236.58C354.46 236.34 355.15 236.13 355.81 235.82C357.183 235.248 358.397 234.352 359.35 233.21C359.828 232.611 360.2 231.935 360.45 231.21C360.686 230.483 360.811 229.724 360.82 228.96C360.824 228.206 360.737 227.453 360.56 226.72C360.472 226.355 360.365 225.994 360.24 225.64C360.116 225.276 359.966 224.922 359.79 224.58L358.41 225.35C358.563 225.617 358.697 225.894 358.81 226.18C358.93 226.48 359.04 226.78 359.13 227.09C359.311 227.701 359.416 228.333 359.44 228.97C359.51 230.228 359.158 231.474 358.44 232.51C357.647 233.547 356.619 234.38 355.44 234.94C354.84 235.25 354.22 235.47 353.56 235.76C352.9 236.05 352.25 236.29 351.56 236.58C348.956 237.714 346.583 239.317 344.56 241.31C343.559 242.303 342.725 243.451 342.09 244.71C341.433 245.941 341.089 247.315 341.09 248.71C341.161 247.323 341.569 245.974 342.28 244.78C342.961 243.584 343.833 242.506 344.86 241.59Z" fill="white"/>
<path d="M331.4 220.13C333.699 221.031 335.686 222.581 337.12 224.59C337.604 225.251 338.029 225.954 338.39 226.69C339.111 228.165 339.645 229.723 339.98 231.33C340.328 232.93 340.499 234.563 340.49 236.2H341.69C341.673 234.56 341.841 232.923 342.19 231.32C342.525 229.711 343.055 228.15 343.77 226.67C344.136 225.939 344.557 225.237 345.03 224.57C345.501 223.899 346.041 223.279 346.64 222.72C347.833 221.585 349.231 220.689 350.76 220.08L351.37 219.84L350.83 219.46C350.482 219.199 350.111 218.971 349.72 218.78C349.34 218.58 348.95 218.41 348.56 218.25C347.768 217.937 346.952 217.686 346.12 217.5C345.292 217.317 344.454 217.184 343.61 217.1C343.19 217.05 342.77 217.04 342.35 217.01H341.09H339.83C339.41 217.01 338.99 217.01 338.57 217.09C337.723 217.165 336.881 217.295 336.05 217.48C335.219 217.658 334.403 217.902 333.61 218.21C333.22 218.37 332.82 218.54 332.44 218.74C332.048 218.933 331.673 219.161 331.32 219.42L330.74 219.84L331.4 220.13ZM333.98 219.31C334.748 219.107 335.526 218.944 336.31 218.82C337.1 218.71 337.89 218.61 338.69 218.56C339.08 218.56 339.48 218.56 339.88 218.5H342.35C342.75 218.5 343.15 218.5 343.54 218.5C344.337 218.543 345.132 218.627 345.92 218.75C346.709 218.865 347.49 219.025 348.26 219.23C348.769 219.358 349.27 219.515 349.76 219.7C348.42 220.281 347.186 221.082 346.11 222.07C345.46 222.67 344.87 223.333 344.35 224.05C343.827 224.744 343.362 225.479 342.96 226.25C342.166 227.782 341.568 229.408 341.18 231.09C341.176 231.157 341.176 231.223 341.18 231.29C341.18 231.23 341.18 231.16 341.13 231.09C340.746 229.405 340.151 227.776 339.36 226.24C338.567 224.682 337.504 223.277 336.22 222.09C335.17 221.125 333.971 220.335 332.67 219.75C333.099 219.581 333.536 219.434 333.98 219.31Z" fill="white"/>
<path d="M346.43 228.41C345.796 228.91 345.249 229.512 344.81 230.19C344.749 230.289 344.695 230.393 344.65 230.5C344.6 230.609 344.563 230.723 344.54 230.84C344.47 231.109 344.47 231.391 344.54 231.66C344.628 231.927 344.787 232.166 345 232.35C345.092 232.43 345.189 232.503 345.29 232.57C345.39 232.57 345.49 232.69 345.59 232.73C345.988 232.922 346.421 233.032 346.863 233.053C347.305 233.073 347.746 233.004 348.16 232.85C348.922 232.509 349.578 231.971 350.06 231.29C350.973 230.044 351.56 228.59 351.77 227.06L351.52 226.99C350.94 228.327 350.212 229.595 349.35 230.77C348.949 231.302 348.414 231.72 347.8 231.98C347.506 232.08 347.194 232.118 346.885 232.092C346.575 232.066 346.274 231.977 346 231.83C345.41 231.51 345.37 231.3 345.7 230.73C346.1 230.174 346.582 229.682 347.13 229.27C348.288 228.374 349.504 227.555 350.77 226.82C352.05 226.07 353.34 225.33 354.65 224.63L355.15 224.36L355.65 224.05L356.16 223.74C356.32 223.63 356.47 223.5 356.62 223.38L357.09 223.01C357.24 222.89 357.37 222.74 357.51 222.61L357.93 222.19C358.06 222.05 358.18 221.89 358.3 221.74C359.271 220.553 360.013 219.197 360.49 217.74C360.735 217.024 360.915 216.288 361.03 215.54C361.165 214.801 361.225 214.051 361.21 213.3C361.065 214.028 360.875 214.746 360.64 215.45C360.53 215.8 360.39 216.14 360.27 216.45C360.15 216.76 360 217.12 359.84 217.45C359.255 218.77 358.469 219.991 357.51 221.07C357.398 221.207 357.278 221.337 357.15 221.46L356.76 221.82C356.638 221.945 356.507 222.061 356.37 222.17L355.94 222.49C355.8 222.6 355.67 222.71 355.52 222.81L355.06 223.08L354.61 223.35L354.11 223.61C352.78 224.3 351.45 225.01 350.11 225.79C348.817 226.565 347.586 227.441 346.43 228.41Z" fill="white"/>
<path d="M321.69 217.7C322.175 219.154 322.916 220.508 323.88 221.7C324.01 221.85 324.12 222.01 324.26 222.15L324.68 222.57C324.82 222.7 324.95 222.85 325.1 222.97L325.56 223.34C325.72 223.46 325.87 223.59 326.03 223.7L326.53 224.01L327.04 224.32L327.53 224.59C328.85 225.29 330.14 226.03 331.41 226.78C332.678 227.517 333.897 228.336 335.06 229.23C335.605 229.644 336.087 230.136 336.49 230.69C336.82 231.26 336.78 231.47 336.18 231.79C335.908 231.937 335.608 232.026 335.3 232.051C334.992 232.077 334.682 232.039 334.39 231.94C333.776 231.68 333.241 231.262 332.84 230.73C331.985 229.556 331.267 228.287 330.7 226.95L330.44 227.02C330.65 228.55 331.237 230.004 332.15 231.25C332.638 231.929 333.297 232.467 334.06 232.81C334.472 232.965 334.912 233.034 335.352 233.013C335.792 232.992 336.223 232.882 336.62 232.69C336.72 232.69 336.82 232.58 336.92 232.53C337.024 232.463 337.125 232.39 337.22 232.31C337.43 232.123 337.588 231.886 337.68 231.62C337.75 231.351 337.75 231.069 337.68 230.8C337.654 230.682 337.613 230.568 337.56 230.46C337.518 230.353 337.468 230.249 337.41 230.15C336.968 229.474 336.421 228.873 335.79 228.37C334.608 227.401 333.351 226.529 332.03 225.76C330.74 224.98 329.41 224.27 328.08 223.58L327.58 223.32L327.12 223.05L326.67 222.78C326.52 222.68 326.38 222.57 326.24 222.46L325.82 222.14C325.68 222.04 325.56 221.91 325.42 221.79L325.03 221.43C324.9 221.31 324.79 221.17 324.67 221.04C323.725 219.967 322.943 218.761 322.35 217.46C322.2 217.12 322.06 216.79 321.92 216.46C321.78 216.13 321.67 215.77 321.56 215.46C321.327 214.755 321.133 214.037 320.98 213.31C320.975 214.06 321.035 214.81 321.16 215.55C321.283 216.279 321.46 216.997 321.69 217.7Z" fill="white"/>
</g>
<defs>
<clipPath id="clip0_365_986">
<rect width="598" height="781" fill="white" transform="translate(-84)"/>
</clipPath>
</defs>
</svg>
