<svg width="290" height="142" viewBox="0 0 290 142" fill="none" xmlns="http://www.w3.org/2000/svg">
<g clip-path="url(#clip0_27_658)">
<path d="M149.65 68.8386H135.577V49.4599H120.568V68.8386H106.499V7.51923H120.568V37.4918H135.577V19.0481H149.65V68.8386ZM138.27 66.1292H146.957V21.7705H138.27V40.2142H117.879V10.2329H109.205V66.1292H117.879V46.7462H138.27V66.1292Z" fill="white"/>
<path d="M149.65 136.703H135.577V105.795H120.568V125.174H106.499V75.3837H120.568V93.8273H135.577V75.3837H149.65V136.703ZM138.27 133.989H146.957V78.1148H138.27V96.5541H117.879V78.1148H109.205V122.473H117.879V103.082H138.27V133.989Z" fill="white"/>
<path d="M183.121 19.0481H168.056L150.202 68.8386H164.996L167.793 60.5235H181.861C181.827 60.1452 181.805 59.7668 181.805 59.3841C181.805 58.8448 181.827 58.3186 181.866 57.8098H165.838L163.045 66.1292H154.017L169.946 21.7706H181.231L190.173 46.668C191.034 46.3885 191.918 46.1834 192.814 46.0548L183.121 19.0481ZM167.931 51.6648H183.186L175.513 28.8245L167.931 51.6648ZM179.436 48.9772H171.668L175.53 37.3483L179.436 48.9772Z" fill="white"/>
<path d="M230.208 50.8037C229.478 52.4313 228.274 53.7965 226.756 54.7178C225.198 55.6316 223.422 56.0979 221.62 56.0659C218.491 56.0659 216.032 55.0091 214.107 52.8347C212.182 50.6602 211.19 47.616 211.19 43.876C211.19 40.1359 212.174 37.1134 214.107 34.9216C216.04 32.7298 218.491 31.686 221.62 31.686C223.423 31.6556 225.199 32.1234 226.756 33.0385C228.275 33.9585 229.48 35.3241 230.208 36.9525L230.575 37.7223H245.679L245.248 36.0219C243.845 30.6423 241.01 26.3325 236.828 23.2057C232.646 20.0788 227.589 18.535 221.771 18.535C217.297 18.4686 212.883 19.5809 208.967 21.7619C205.227 23.876 202.153 27.0095 200.099 30.8032C197.954 34.8249 196.865 39.3325 196.935 43.8977C196.935 44.5761 196.957 45.2415 197 45.8982C197.921 45.9544 198.834 46.1001 199.728 46.3331C199.663 45.5329 199.628 44.7153 199.628 43.8847C199.558 39.7775 200.531 35.7205 202.455 32.0992C204.271 28.7475 206.987 25.9789 210.292 24.1103C213.804 22.1589 217.761 21.1664 221.771 21.2313C226.997 21.2313 231.52 22.6316 235.214 25.3932C238.442 27.8105 240.853 31.1708 242.119 35.0173H232.241C231.281 33.2437 229.871 31.7593 228.154 30.7162C226.18 29.5479 223.927 28.9463 221.638 28.9767C217.754 28.9767 214.547 30.3727 212.117 33.1212C209.688 35.8697 208.514 39.4444 208.514 43.8803C208.514 48.3162 209.727 51.9388 212.117 54.6395C214.508 57.3401 217.728 58.784 221.638 58.784C223.927 58.8157 226.181 58.214 228.154 57.0444C229.873 56.0045 231.284 54.5193 232.241 52.7434H242.123C240.858 56.5748 238.446 59.9172 235.219 62.3109C231.524 65.0507 227.019 66.4424 221.771 66.4424C217.761 66.5078 213.804 65.5153 210.292 63.5634C209.47 63.0995 208.681 62.5778 207.931 62.0022C207.703 62.7829 207.389 63.5355 206.995 64.2462C206.939 64.3462 206.878 64.4462 206.818 64.5462C207.513 65.0437 208.233 65.5039 208.976 65.9249C212.891 68.1083 217.306 69.2208 221.78 69.1517C227.593 69.1517 232.655 67.5861 236.82 64.4984C240.984 61.4107 243.841 57.1053 245.244 51.7127L245.675 50.0123H230.571L230.208 50.8037Z" fill="white"/>
<path d="M289.426 68.8386H269.471L260.987 57.3358V68.8386H246.914V19.0481H260.987V30.4075L269.337 19.0481H288.757L269.587 43.4759L289.426 68.8386ZM270.822 66.1292H283.881L266.187 43.4715L283.225 21.7619H270.709L258.311 38.6225V21.7619H249.606V66.1206H258.294V49.1425L270.822 66.1292Z" fill="white"/>
<path d="M194.342 99.246V104.839C194.342 108.753 193.513 112.114 191.878 114.793C190.303 117.412 188.012 119.517 185.279 120.856C182.337 122.266 179.112 122.976 175.854 122.93C172.644 122.987 169.466 122.289 166.571 120.89C163.912 119.561 161.709 117.459 160.249 114.854C158.691 112.154 157.901 108.766 157.901 104.852V78.1148H166.602V104.926C166.602 108.079 167.417 110.579 169.018 112.341C170.619 114.102 173.023 115.067 176.065 115.067C179.108 115.067 181.494 114.154 183.169 112.358C184.843 110.562 185.668 108.083 185.668 104.926V97.637C184.718 97.2164 183.816 96.696 182.975 96.0844V104.908C182.975 107.352 182.379 109.231 181.21 110.484C180.04 111.736 178.361 112.336 176.065 112.336C173.77 112.336 172.125 111.736 171.008 110.497C169.89 109.257 169.281 107.361 169.281 104.908V75.3837H155.208V104.839C155.208 109.266 156.123 113.102 157.919 116.215C159.643 119.288 162.24 121.771 165.376 123.343C168.642 124.926 172.23 125.721 175.854 125.666C179.521 125.703 183.147 124.891 186.453 123.291C189.645 121.73 192.322 119.273 194.161 116.215C196.059 113.102 197.022 109.279 197.022 104.839V99.0764C196.132 99.1818 195.238 99.2384 194.342 99.246Z" fill="white"/>
<path d="M232.737 75.3837V101.381L218.789 79.9978C218.617 80.8676 218.418 81.6852 218.177 82.4898C218.073 82.829 217.965 83.1638 217.849 83.4944L235.43 110.457V78.1148H244.117V122.473H234.809L219.104 98.5111H213.706V122.473H205.01V96.5628C204.137 97.0237 203.238 97.4317 202.317 97.7848V125.183H216.39V99.2939L233.354 125.174H246.801V75.3837H232.737Z" fill="white"/>
<path d="M277.623 125.174H263.55V87.2822H251.186V75.3837H290.026V87.2822H277.623V125.174ZM266.243 122.473H274.922V84.5729H287.307V78.1148H253.862V84.5903H266.243V122.473Z" fill="white"/>
<path d="M186.384 70.6521C185.019 68.8329 183.861 66.865 182.932 64.7854C182.19 63.0825 181.803 61.2439 181.797 59.3841C181.797 55.0555 183.047 51.7214 185.547 49.3817C188.047 47.0419 191.479 45.8663 195.844 45.8547C199.584 45.8547 202.633 47.0246 204.993 49.3643C206.127 50.4625 207.025 51.7847 207.63 53.2482C208.236 54.7118 208.535 56.2854 208.51 57.8707C208.567 60.1037 208.049 62.3135 207.008 64.2853C205.876 66.2432 204.366 67.9526 202.567 69.3126L198.968 71.8654L208.518 83.0943C209.382 81.659 210.05 80.1128 210.503 78.4975C210.982 76.7794 211.22 75.0024 211.211 73.2179H219.454C219.487 76.3538 219.064 79.4776 218.198 82.4898C217.403 85.2132 216.074 87.7481 214.288 89.9438L221.4 98.3197L221.327 98.498H209.843L207.12 95.3277C205.201 96.5926 203.117 97.582 200.927 98.2675C198.713 98.9346 196.412 99.2658 194.1 99.2504C188.956 99.2504 184.863 97.8892 181.822 95.1668C178.781 92.4444 177.259 88.8957 177.257 84.5207C177.182 81.884 177.972 79.2961 179.505 77.158C181.004 75.1256 183.297 72.957 186.384 70.6521ZM194.627 91.2615C197.203 91.254 199.735 90.5913 201.989 89.3349L191.55 77.158L191.23 77.4103C190.046 78.304 189.068 79.4466 188.365 80.7589C187.867 81.7677 187.602 82.8767 187.588 84.0032C187.554 84.9595 187.708 85.9132 188.042 86.809C188.377 87.7048 188.884 88.5249 189.534 89.2219C190.193 89.9037 190.987 90.4379 191.864 90.7893C192.742 91.1408 193.683 91.3017 194.627 91.2615ZM191.019 59.2797C191.034 60.341 191.276 61.3865 191.727 62.3457C192.31 63.5678 193.034 64.7166 193.884 65.7683L196.573 64.0287C197.894 63.1589 198.784 62.279 199.244 61.3889C199.709 60.4741 199.946 59.4592 199.935 58.4317C199.95 57.2593 199.535 56.1226 198.77 55.2396C198.37 54.7814 197.873 54.4199 197.316 54.182C196.758 53.944 196.155 53.8358 195.55 53.8654C194.911 53.8383 194.275 53.9669 193.696 54.2402C193.117 54.5135 192.611 54.9234 192.223 55.4353C191.402 56.5428 190.977 57.8979 191.019 59.2797Z" fill="#FBAE40"/>
<path d="M86.1555 61.7064C86.0089 59.8752 85.5718 58.0795 84.8609 56.3877C84.1046 54.6493 82.9583 53.1115 81.512 51.8953C80.0525 50.7443 78.3796 49.8983 76.5915 49.4069C74.8034 48.9155 72.936 48.7887 71.0986 49.0338C67.452 49.5426 64.2326 51.33 61.4836 53.4696C58.762 55.635 56.3511 58.1698 54.3198 61.0019C53.3035 62.4023 52.3766 63.8665 51.5449 65.3856C50.6817 66.905 50.0049 68.5245 49.5296 70.2085C49.4192 70.6547 49.3512 71.1105 49.3267 71.5697C49.3161 72.0224 49.3464 72.4751 49.4174 72.9222C49.5154 73.8798 49.9798 74.7611 50.712 75.3793C51.1039 75.6462 51.5448 75.8313 52.0087 75.9239C52.4727 76.0166 52.9503 76.0147 53.4135 75.9186C54.2823 75.7643 55.1241 75.483 55.9122 75.0836C57.4434 74.3013 58.8812 73.3456 60.1976 72.2351C61.5169 71.1545 62.7815 70.0079 63.9866 68.7995C61.4404 71.0391 58.7432 73.2049 55.6878 74.5922C54.9399 74.9351 54.146 75.1651 53.3315 75.275C52.9579 75.3448 52.574 75.3377 52.2032 75.254C51.8323 75.1703 51.4822 75.0117 51.1738 74.7879C50.6187 74.273 50.2857 73.5596 50.2459 72.8004C50.2013 72.4034 50.1912 72.0033 50.2157 71.6045C50.2542 71.2155 50.3293 70.8311 50.4401 70.4564C50.962 68.8811 51.669 67.3744 52.5461 65.9683C55.1473 61.6669 58.5258 57.895 62.5064 54.8482C65.1604 52.9043 68.177 51.3909 71.3273 51.056C72.8747 50.8851 74.4403 51.0251 75.9336 51.4677C77.4269 51.9104 78.8184 52.647 80.0275 53.6349C81.171 54.6417 82.0663 55.9027 82.6427 57.3184C83.2116 58.7852 83.5452 60.334 83.631 61.9065C83.7613 65.1827 83.4138 68.4604 82.5995 71.6349C81.0546 78.1061 78.4609 84.3685 75.6084 90.47C72.7558 96.5715 69.5191 102.538 66.1142 108.392C62.7092 114.245 59.123 120.003 55.4116 125.679C53.556 128.517 51.6672 131.335 49.7453 134.133L48.3557 136.212C47.8538 136.922 47.2166 137.525 46.4812 137.985C45.7458 138.445 44.9269 138.753 44.0722 138.891C43.2175 139.029 42.3441 138.995 41.5029 138.789C40.6617 138.584 39.8694 138.212 39.1723 137.695C38.6151 137.285 38.1258 136.789 37.7222 136.225L36.2722 134.142C34.3475 131.345 32.44 128.545 30.5714 125.709C26.8384 120.056 23.235 114.302 19.8171 108.448C16.3991 102.595 13.1711 96.6411 10.2711 90.5396C7.37104 84.4381 4.81192 78.167 3.25401 71.6741C2.50311 68.4385 2.00251 65.1203 2.22691 61.8891C2.31885 60.2947 2.66266 58.7253 3.24538 57.2401C3.83504 55.8047 4.74988 54.5284 5.9167 53.5131C7.14079 52.5163 8.54991 51.7755 10.0616 51.3342C11.5733 50.8928 13.1571 50.7598 14.7204 50.9429C17.888 51.2952 20.9175 52.8173 23.5673 54.7743C26.2367 56.7911 28.6232 59.1625 30.662 61.8238C31.692 63.1439 32.6362 64.5298 33.4887 65.9727C34.3534 67.3825 35.046 68.8923 35.5515 70.4694C35.6571 70.842 35.7293 71.2233 35.7673 71.6089C35.7869 72.0021 35.7739 72.3963 35.7285 72.7874C35.6821 73.5225 35.3559 74.2111 34.8179 74.7096C34.5177 74.9186 34.1789 75.0648 33.8216 75.1395C33.4643 75.2142 33.0957 75.2159 32.7378 75.1445C31.9355 75.0298 31.1536 74.7999 30.416 74.4617C27.3951 73.0744 24.7325 70.8739 22.2165 68.6212L21.9144 68.9386C23.1349 70.1415 24.4154 71.2809 25.7509 72.3525C27.0849 73.4478 28.5317 74.3955 30.0665 75.1793C30.8668 75.5823 31.7219 75.8637 32.604 76.0143C33.0821 76.1107 33.5745 76.1092 34.052 76.0098C34.5294 75.9104 34.9822 75.7152 35.3832 75.4359C36.1318 74.7993 36.6066 73.8953 36.7081 72.9135C36.7739 72.463 36.8014 72.0076 36.7901 71.5523C36.762 71.0883 36.6897 70.6281 36.5743 70.1781C36.0836 68.494 35.3924 66.8761 34.5158 65.3595C33.6744 63.8497 32.7359 62.397 31.7064 61.0106C29.6587 58.1982 27.2431 55.6777 24.5253 53.5175C21.7763 51.3909 18.5655 49.6035 14.9362 49.1251C13.1143 48.8934 11.2648 49.0303 9.49606 49.5276C7.72728 50.0249 6.07469 50.8727 4.63499 52.0214C3.2109 53.2262 2.08373 54.7477 1.34223 56.466C0.649651 58.145 0.225777 59.924 0.0864069 61.7369C-0.211365 65.3073 0.284922 68.8125 1.01425 72.2003C2.53763 78.9846 5.09243 85.4079 7.91911 91.6529C10.7458 97.8979 13.9609 103.947 17.3831 109.875C20.8053 115.802 24.3829 121.617 28.1029 127.349C29.9643 130.213 31.8589 133.054 33.7865 135.872L35.2537 137.99C36.1434 139.234 37.3135 140.247 38.6679 140.946C40.0222 141.644 41.5218 142.009 43.0433 142.009C44.5647 142.009 46.0644 141.644 47.4187 140.946C48.773 140.247 49.9432 139.234 50.8328 137.99L52.3044 135.877C54.2378 133.062 56.1424 130.228 58.0182 127.375C61.7641 121.66 65.3892 115.863 68.8071 109.927C72.225 103.991 75.4444 97.9544 78.3013 91.7181C81.1582 85.4818 83.7 79.0411 85.232 72.2351C85.9614 68.8256 86.4749 65.3073 86.1555 61.7064Z" fill="#FBAE40"/>
<path d="M7.23711 27.5937C7.41673 26.9789 7.62702 26.3737 7.86718 25.7802C8.09515 25.2087 8.35893 24.6524 8.65693 24.1146L5.93382 22.5838C5.58653 23.2716 5.28521 23.9821 5.03187 24.7104C4.78536 25.4151 4.57506 26.1322 4.4018 26.8587C4.05491 28.3198 3.88822 29.8185 3.90552 31.3207C3.91831 32.8477 4.16728 34.3634 4.64347 35.8131C5.1324 37.2604 5.86206 38.6134 6.80124 39.8141C8.69831 42.0972 11.1124 43.8871 13.8399 45.0328C15.1346 45.6373 16.5457 46.0635 17.7972 46.5462C19.0487 47.0289 20.3866 47.4725 21.6553 47.977C26.7088 50.0644 31.5811 52.7607 35.573 56.5356C37.6059 58.3799 39.3299 60.5431 40.6782 62.9415C42.0074 65.329 42.9741 67.9992 43.0388 70.7695C43.1079 67.9862 42.262 65.2377 41.0235 62.7458C39.7644 60.2332 38.1087 57.9435 36.121 55.9659C32.237 51.9084 27.3518 48.912 22.2854 46.5331C20.9907 45.9591 19.6961 45.4372 18.4014 44.8893C17.1068 44.3413 15.8596 43.8803 14.6685 43.2541C12.3104 42.1465 10.2515 40.4833 8.66556 38.4051C7.21016 36.3535 6.48757 33.8654 6.61567 31.3468C6.67063 30.075 6.87932 28.8146 7.23711 27.5937Z" fill="#FBAE40"/>
<path d="M50.5134 56.5225C54.4966 52.7433 59.3775 50.0514 64.431 47.9639C65.7041 47.4594 67.0203 47.0115 68.2848 46.5331C69.5492 46.0548 70.9518 45.6242 72.2464 45.0197C74.9734 43.873 77.3872 42.0833 79.2851 39.801C80.2262 38.6016 80.956 37.2483 81.4429 35.8001C81.9211 34.3509 82.1702 32.8349 82.1808 31.3077C82.1962 29.8048 82.0251 28.3058 81.6716 26.8457C81.4947 26.1194 81.2875 25.4019 81.0415 24.6973C80.7882 23.969 80.4869 23.2586 80.1396 22.5707L77.4121 24.1016C77.7133 24.6383 77.9786 25.1948 78.2062 25.7672C78.4469 26.3599 78.6557 26.9653 78.832 27.5807C79.1911 28.801 79.397 30.0618 79.4448 31.3338C79.5745 33.8519 78.8534 36.34 77.3992 38.392C75.8133 40.4703 73.7543 42.1334 71.3963 43.241C70.2052 43.8673 68.9709 44.3022 67.6633 44.8762C66.3557 45.4503 65.074 45.946 63.7794 46.5201C58.7129 48.8989 53.8536 51.8953 49.9437 55.9528C47.9561 57.9304 46.3004 60.2202 45.0413 62.7327C43.8027 65.2247 42.9569 67.9514 43.0259 70.7564C43.0906 67.9732 44.0573 65.3029 45.3865 62.9284C46.7414 60.5284 48.4727 58.3652 50.5134 56.5225Z" fill="#FBAE40"/>
<path d="M23.8606 13.712C26.8847 14.9064 29.6514 16.6785 32.0083 18.9307C33.1819 20.0486 34.2443 21.2793 35.1802 22.6055C36.128 23.927 36.9639 25.3265 37.6789 26.7892C39.113 29.7293 40.1729 32.8402 40.8336 36.048C41.5236 39.2393 41.8651 42.4972 41.8521 45.7634V45.8243H44.217C44.217 45.8025 44.217 45.7808 44.217 45.759C44.1951 42.4923 44.528 39.233 45.2096 36.0393C45.8661 32.8273 46.9231 29.712 48.3556 26.7674C49.0701 25.3012 49.9044 23.8975 50.85 22.5707C51.7846 21.2382 52.847 20.0015 54.0219 18.8785C56.3763 16.6144 59.1411 14.8279 62.1653 13.6164L63.378 13.1206L62.3034 12.3682C61.6112 11.8523 60.8746 11.3996 60.1025 11.0157C59.3516 10.62 58.5834 10.2764 57.8023 9.95025C56.2346 9.33492 54.6233 8.83921 52.9819 8.46729C51.3482 8.09787 49.6937 7.82919 48.0276 7.66274C47.1947 7.56706 46.3575 7.54967 45.5203 7.48879L43.0345 7.44095L40.5445 7.48009C39.7072 7.53662 38.87 7.54532 38.0371 7.64099C36.3641 7.796 34.7023 8.05599 33.0613 8.41945C31.4163 8.78455 29.8007 9.27299 28.2279 9.88068C27.4468 10.2068 26.67 10.5461 25.9191 10.9375C25.1396 11.3204 24.3958 11.7731 23.6966 12.29L22.553 13.1597L23.8476 13.7294L23.8606 13.712ZM28.9659 12.0812C30.4837 11.6708 32.0222 11.3427 33.5749 11.0984C35.1328 10.8679 36.6993 10.6635 38.2745 10.5808C39.0599 10.52 39.854 10.5069 40.6394 10.4634H43.0345H45.4297C46.2151 10.5026 47.0091 10.5156 47.7946 10.5721C49.3741 10.6548 50.9406 10.8374 52.4985 11.0592C54.0556 11.2976 55.5997 11.6154 57.1248 12.0116C58.1352 12.2677 59.1295 12.5843 60.1025 12.9597C55.8624 14.8351 52.1788 17.7889 49.4129 21.5314C48.3751 22.917 47.4542 24.3877 46.6596 25.9281C45.0868 28.9905 43.9023 32.2399 43.1338 35.6C43.1036 35.7348 43.0777 35.8653 43.0475 36.0001C43.0173 35.8653 42.9914 35.7305 42.9569 35.5957C42.199 32.2313 41.0216 28.9771 39.4526 25.9107C37.877 22.8123 35.7752 20.0158 33.2426 17.6478C31.1617 15.7196 28.7847 14.1438 26.2039 12.9814C27.107 12.629 28.0291 12.3285 28.9659 12.0812Z" fill="#FBAE40"/>
<path d="M53.6119 30.2204C52.3569 31.2272 51.2712 32.4313 50.3968 33.7865C50.2799 33.9794 50.1788 34.1815 50.0947 34.391C49.9899 34.6102 49.9103 34.8408 49.8574 35.0782C49.7171 35.617 49.7171 36.1832 49.8574 36.722C50.0328 37.2518 50.3475 37.7238 50.768 38.0876C50.9456 38.2539 51.141 38.3997 51.3506 38.5225C51.5407 38.6448 51.7398 38.7524 51.9461 38.8443C52.732 39.2283 53.5872 39.4471 54.4597 39.4875C55.3322 39.5278 56.2037 39.3889 57.0212 39.0791C58.5304 38.4072 59.832 37.3375 60.7886 35.9827C62.5981 33.4957 63.7626 30.5927 64.1763 27.5372L63.6714 27.4024C62.4285 30.0682 61.1641 32.7341 59.4379 34.9303C58.6441 35.999 57.582 36.8351 56.3609 37.3526C55.7807 37.5518 55.166 37.6287 54.555 37.5785C53.9441 37.5284 53.3499 37.3524 52.8092 37.0613C51.6397 36.422 51.562 36.0001 52.2137 34.8564C53.0014 33.7441 53.9566 32.7625 55.0447 31.947C57.3429 30.1601 59.7531 28.5245 62.2602 27.0501C64.7848 25.5541 67.3396 24.0885 69.9376 22.6795C70.2612 22.5012 70.5849 22.3359 70.9129 22.1446L71.9141 21.5314L72.9153 20.9138C73.2347 20.6877 73.5324 20.4354 73.8431 20.1963L74.758 19.4656C75.0601 19.2178 75.3147 18.922 75.5953 18.648L76.4152 17.8174C76.6914 17.5434 76.9158 17.2216 77.1661 16.9476C79.0843 14.55 80.5539 11.8209 81.5032 8.89348C81.9723 7.45801 82.3301 5.98802 82.5735 4.49675C82.8323 3.01976 82.9522 1.52145 82.9317 0.0217438C82.6328 1.47024 82.2524 2.90043 81.7924 4.3054C81.5766 5.00992 81.3047 5.6927 81.0674 6.37982C80.83 7.06695 80.5193 7.73667 80.2043 8.39336C79.0388 11.023 77.4832 13.4587 75.5909 15.6169C75.3493 15.8778 75.1378 16.1648 74.8789 16.404L74.1064 17.1216C73.8388 17.3564 73.6015 17.6174 73.321 17.8305L72.5226 18.4436C72.2421 18.6524 71.9702 18.8785 71.6595 19.0742L70.7532 19.6092L69.8513 20.1484C69.5362 20.3224 69.1953 20.492 68.8673 20.6659C66.2262 22.0445 63.5937 23.4579 61.0389 25.0148C58.4306 26.5495 55.9471 28.2901 53.6119 30.2204Z" fill="#FBAE40"/>
<path d="M4.63491 8.87174C5.57395 11.7992 7.03654 14.5289 8.95045 16.9259C9.20075 17.2216 9.42084 17.5434 9.69704 17.7957L10.517 18.6263C10.7975 18.9003 11.0521 19.196 11.3542 19.4439L12.2691 20.1745C12.5798 20.4137 12.8776 20.6659 13.1969 20.8921L14.1981 21.5096L15.1994 22.1228C15.5273 22.3142 15.851 22.4794 16.1747 22.6577C18.764 24.0668 21.3274 25.5323 23.852 27.0284C26.3692 28.5077 28.7882 30.1508 31.0935 31.947C32.1816 32.7625 33.1367 33.7441 33.9245 34.8564C34.5761 36.0001 34.4984 36.422 33.3289 37.0613C32.7883 37.3524 32.1941 37.5284 31.5831 37.5785C30.9722 37.6287 30.3575 37.5518 29.7772 37.3526C28.5562 36.8351 27.4941 35.999 26.7003 34.9303C24.9741 32.7559 23.7096 30.0682 22.4667 27.4024L21.9618 27.5372C22.3775 30.5922 23.5418 33.4947 25.3495 35.9827C26.3062 37.3375 27.6077 38.4072 29.117 39.0791C29.9345 39.3889 30.806 39.5278 31.6785 39.4875C32.5509 39.4471 33.4061 39.2283 34.192 38.8443C34.3984 38.7524 34.5974 38.6448 34.7876 38.5225C34.9972 38.3997 35.1926 38.2539 35.3702 38.0876C35.7907 37.7238 36.1054 37.2518 36.2808 36.722C36.4254 36.1838 36.4254 35.6164 36.2808 35.0782C36.2279 34.8408 36.1482 34.6102 36.0434 34.391C35.9628 34.18 35.8616 33.9775 35.7413 33.7865C34.8684 32.4315 33.7842 31.2274 32.5306 30.2204C30.1918 28.2959 27.7055 26.5611 25.0949 25.0322C22.5401 23.4579 19.9162 22.0445 17.2665 20.6833C16.9385 20.5094 16.5976 20.3398 16.2826 20.1658L15.3806 19.6265L14.4743 19.0916C14.1852 18.8959 13.9176 18.6567 13.6112 18.461L12.774 17.8261C12.4935 17.613 12.2562 17.3521 11.9929 17.1172L11.2161 16.3997C10.9572 16.1605 10.7457 15.8735 10.504 15.6125C8.61175 13.4543 7.05619 11.0186 5.89073 8.38901C5.58864 7.73233 5.32108 7.0539 5.02762 6.37547C4.73416 5.69705 4.51839 5.00558 4.30261 4.30106C3.84201 2.8966 3.46304 1.46629 3.16762 0.017395C3.14562 1.51696 3.2641 3.01528 3.5215 4.49241C3.7778 5.97942 4.15009 7.44373 4.63491 8.87174Z" fill="#FBAE40"/>
</g>
<defs>
<clipPath id="clip0_27_658">
<rect width="290" height="142" fill="white"/>
</clipPath>
</defs>
</svg>
