<svg width="143" height="70" viewBox="0 0 143 70" fill="none" xmlns="http://www.w3.org/2000/svg">
<g clip-path="url(#clip0_154_3280)">
<path d="M73.7931 33.9345H66.8536V24.3817H59.4524V33.9345H52.5151V3.70667H59.4524V18.4819H66.8536V9.38993H73.7931V33.9345ZM68.1815 32.5989H72.4652V10.732H68.1815V19.8239H58.1267V5.04441H53.8494V32.5989H58.1267V23.0439H68.1815V32.5989Z" fill="white"/>
<path d="M73.7931 67.3888H66.8536V52.1527H59.4524V61.7056H52.5151V37.161H59.4524V46.2529H66.8536V37.161H73.7931V67.3888ZM68.1815 66.0511H72.4652V38.5073H68.1815V47.5971H58.1267V38.5073H53.8494V60.3743H58.1267V50.815H68.1815V66.0511Z" fill="white"/>
<path d="M90.2979 9.38992H82.869L74.0654 33.9345H81.3602L82.7392 29.8355H89.6765C89.6595 29.649 89.6488 29.4625 89.6488 29.2738C89.6488 29.008 89.6595 28.7486 89.6786 28.4978H81.7752L80.3984 32.5989H75.9466L83.8011 10.732H89.3658L93.775 23.0053C94.1999 22.8676 94.6355 22.7664 95.0774 22.703L90.2979 9.38992ZM82.8073 25.4686H90.3298L86.5462 14.2092L82.8073 25.4686ZM88.4806 24.1437H84.6501L86.5547 18.4111L88.4806 24.1437Z" fill="white"/>
<path d="M113.516 25.0441C113.157 25.8464 112.563 26.5194 111.814 26.9736C111.046 27.424 110.17 27.6539 109.282 27.6381C107.739 27.6381 106.526 27.1172 105.577 26.0453C104.628 24.9734 104.138 23.4727 104.138 21.629C104.138 19.7853 104.624 18.2954 105.577 17.2149C106.53 16.1344 107.739 15.6199 109.282 15.6199C110.17 15.6049 111.046 15.8355 111.814 16.2866C112.563 16.7401 113.157 17.4133 113.516 18.2161L113.697 18.5955H121.145L120.933 17.7573C120.241 15.1054 118.843 12.9808 116.781 11.4394C114.719 9.89803 112.225 9.13697 109.356 9.13697C107.15 9.10423 104.974 9.65257 103.042 10.7277C101.198 11.7699 99.6824 13.3146 98.6693 15.1847C97.6116 17.1672 97.0747 19.3893 97.1095 21.6397C97.1095 21.9742 97.1201 22.3022 97.1414 22.6259C97.5955 22.6536 98.0459 22.7254 98.4863 22.8403C98.4544 22.4458 98.4374 22.0428 98.4374 21.6333C98.4027 19.6087 98.8825 17.6087 99.8312 15.8235C100.727 14.1713 102.066 12.8065 103.696 11.8854C105.428 10.9234 107.379 10.4342 109.356 10.4661C111.933 10.4661 114.163 11.1565 115.985 12.5178C117.577 13.7094 118.765 15.3659 119.39 17.2621H114.519C114.046 16.3878 113.35 15.656 112.504 15.1418C111.53 14.5659 110.419 14.2693 109.29 14.2843C107.375 14.2843 105.794 14.9725 104.596 16.3273C103.398 17.6822 102.819 19.4445 102.819 21.6312C102.819 23.8179 103.417 25.6037 104.596 26.935C105.775 28.2663 107.362 28.978 109.29 28.978C110.419 28.9936 111.53 28.697 112.504 28.1205C113.351 27.6078 114.047 26.8757 114.519 26.0003H119.392C118.768 27.889 117.578 29.5366 115.987 30.7167C114.165 32.0673 111.944 32.7533 109.356 32.7533C107.379 32.7856 105.427 32.2963 103.696 31.3341C103.29 31.1054 102.901 30.8482 102.532 30.5645C102.419 30.9493 102.264 31.3203 102.07 31.6707C102.042 31.72 102.012 31.7693 101.983 31.8186C102.325 32.0638 102.68 32.2907 103.047 32.4982C104.977 33.5745 107.154 34.1229 109.36 34.0889C112.227 34.0889 114.723 33.3171 116.777 31.795C118.83 30.2729 120.239 28.1505 120.93 25.4922L121.143 24.6539H113.695L113.516 25.0441Z" fill="white"/>
<path d="M142.717 33.9345H132.877L128.693 28.2641V33.9345H121.754V9.38992H128.693V14.9896L132.811 9.38992H142.387L132.934 21.4318L142.717 33.9345ZM133.543 32.5989H139.982L131.258 21.4296L139.659 10.7277H133.488L127.374 19.0393V10.7277H123.082V32.5946H127.365V24.2252L133.543 32.5989Z" fill="white"/>
<path d="M95.8305 48.9241V51.6811C95.8305 53.6105 95.4219 55.2677 94.6154 56.5883C93.8391 57.8793 92.7092 58.917 91.3617 59.5768C89.9108 60.2722 88.3206 60.622 86.7141 60.5994C85.1314 60.6275 83.5641 60.2832 82.1367 59.5939C80.8253 58.9388 79.7393 57.9022 79.0192 56.6183C78.251 55.287 77.8616 53.6169 77.8616 51.6875V38.5073H82.1516V51.7239C82.1516 53.2782 82.5538 54.5109 83.3433 55.3792C84.1328 56.2474 85.3181 56.7233 86.8183 56.7233C88.3186 56.7233 89.4954 56.2731 90.3211 55.3877C91.1467 54.5023 91.5532 53.2804 91.5532 51.7239V48.1309C91.085 47.9236 90.6399 47.6671 90.2253 47.3656V51.7154C90.2253 52.9202 89.9316 53.8463 89.3549 54.4637C88.7782 55.0812 87.9504 55.377 86.8183 55.377C85.6862 55.377 84.8755 55.0812 84.3243 54.4702C83.7732 53.8592 83.4731 52.9245 83.4731 51.7154V37.161H76.5337V51.6811C76.5337 53.8635 76.9848 55.7543 77.8701 57.2893C78.7202 58.804 80.0009 60.0278 81.5473 60.803C83.158 61.5834 84.927 61.9754 86.7141 61.9478C88.5222 61.9663 90.3104 61.5658 91.9405 60.7773C93.5145 60.0079 94.8343 58.7966 95.7411 57.2893C96.6774 55.7543 97.152 53.8699 97.152 51.6811V48.8405C96.7133 48.8924 96.2721 48.9203 95.8305 48.9241Z" fill="white"/>
<path d="M114.764 37.161V49.9767L107.886 39.4356C107.801 39.8643 107.703 40.2674 107.584 40.664C107.533 40.8312 107.479 40.9963 107.422 41.1592L116.091 54.4509V38.5073H120.375V60.3743H115.785L108.041 48.5618H105.379V60.3743H101.091V47.6014C100.661 47.8286 100.217 48.0297 99.7632 48.2038V61.7099H106.703V48.9477L115.068 61.7056H121.699V37.161H114.764Z" fill="white"/>
<path d="M136.897 61.7056H129.958V43.0265H123.861V37.161H143.013V43.0265H136.897V61.7056ZM131.285 60.3743H135.565V41.6909H141.672V38.5073H125.18V41.6994H131.285V60.3743Z" fill="white"/>
<path d="M91.9065 34.8285C91.2334 33.9317 90.6623 32.9616 90.2041 31.9365C89.8382 31.097 89.6477 30.1907 89.6444 29.2739C89.6444 27.14 90.2608 25.4964 91.4936 24.3431C92.7265 23.1897 94.4189 22.6101 96.5711 22.6044C98.4153 22.6044 99.9191 23.1811 101.082 24.3345C101.642 24.8759 102.085 25.5277 102.383 26.2491C102.682 26.9706 102.829 27.7463 102.817 28.5278C102.845 29.6286 102.59 30.7179 102.076 31.6899C101.518 32.6551 100.773 33.4978 99.8865 34.1682L98.1117 35.4266L102.821 40.962C103.247 40.2544 103.576 39.4922 103.8 38.6959C104.036 37.849 104.153 36.973 104.149 36.0933H108.213C108.23 37.6392 108.021 39.1791 107.594 40.664C107.202 42.0065 106.547 43.2561 105.666 44.3385L109.173 48.4675L109.137 48.5554H103.474L102.132 46.9925C101.185 47.6161 100.158 48.1038 99.0778 48.4417C97.9857 48.7706 96.8511 48.9338 95.7113 48.9262C93.1747 48.9262 91.1567 48.2552 89.6572 46.9132C88.1576 45.5712 87.4071 43.8218 87.4057 41.6651C87.3688 40.3654 87.7585 39.0896 88.5144 38.0356C89.2535 37.0338 90.3842 35.9647 91.9065 34.8285ZM95.971 44.9881C97.2411 44.9843 98.4898 44.6577 99.6013 44.0383L94.4537 38.0356L94.2962 38.16C93.712 38.6006 93.2299 39.1638 92.8832 39.8107C92.6378 40.308 92.5069 40.8547 92.5002 41.41C92.4834 41.8815 92.5595 42.3516 92.7243 42.7932C92.889 43.2347 93.139 43.639 93.4599 43.9826C93.7847 44.3187 94.1762 44.582 94.6089 44.7553C95.0416 44.9286 95.5057 45.0079 95.971 44.9881ZM94.1919 29.2224C94.1996 29.7456 94.3186 30.261 94.5409 30.7338C94.8287 31.3363 95.1859 31.9025 95.6049 32.421L96.9307 31.5634C97.5819 31.1347 98.0209 30.7009 98.2479 30.2622C98.4769 29.8112 98.5938 29.3109 98.5884 28.8044C98.5959 28.2264 98.3913 27.6661 98.0138 27.2308C97.8168 27.0049 97.5717 26.8267 97.2969 26.7094C97.0221 26.5921 96.7245 26.5388 96.4264 26.5533C96.1113 26.54 95.7976 26.6034 95.512 26.7381C95.2264 26.8728 94.9773 27.0749 94.7857 27.3273C94.3808 27.8732 94.1715 28.5412 94.1919 29.2224Z" fill="#FBAE40"/>
<path d="M42.4833 30.4187C42.411 29.5159 42.1955 28.6307 41.8449 27.7968C41.472 26.9398 40.9067 26.1817 40.1936 25.5822C39.4739 25.0148 38.649 24.5977 37.7673 24.3555C36.8856 24.1133 35.9647 24.0507 35.0587 24.1716C33.2606 24.4224 31.6731 25.3035 30.3175 26.3583C28.9755 27.4257 27.7867 28.6753 26.785 30.0714C26.2839 30.7617 25.8268 31.4835 25.4167 32.2323C24.9911 32.9813 24.6574 33.7797 24.4229 34.6098C24.3685 34.8298 24.335 35.0545 24.3229 35.2808C24.3177 35.504 24.3326 35.7272 24.3676 35.9476C24.4159 36.4196 24.6449 36.8541 25.006 37.1588C25.1993 37.2904 25.4167 37.3816 25.6454 37.4273C25.8742 37.4729 26.1097 37.472 26.3381 37.4247C26.7665 37.3486 27.1816 37.2099 27.5703 37.013C28.3253 36.6274 29.0343 36.1563 29.6834 35.6088C30.3339 35.0762 30.9575 34.5109 31.5518 33.9152C30.2962 35.0193 28.9662 36.0869 27.4596 36.7708C27.0908 36.9398 26.6993 37.0532 26.2977 37.1074C26.1135 37.1418 25.9242 37.1383 25.7413 37.097C25.5584 37.0558 25.3858 36.9776 25.2337 36.8673C24.96 36.6135 24.7958 36.2618 24.7762 35.8875C24.7542 35.6918 24.7492 35.4946 24.7613 35.298C24.7803 35.1062 24.8173 34.9167 24.8719 34.732C25.1293 33.9555 25.4779 33.2127 25.9104 32.5196C27.1931 30.3992 28.859 28.5398 30.8219 27.0379C32.1306 26.0796 33.6181 25.3335 35.1715 25.1684C35.9345 25.0842 36.7065 25.1532 37.4429 25.3714C38.1792 25.5896 38.8654 25.9527 39.4616 26.4397C40.0254 26.936 40.4669 27.5577 40.7511 28.2555C41.0317 28.9786 41.1962 29.7421 41.2385 30.5173C41.3027 32.1323 41.1314 33.7481 40.7299 35.313C39.968 38.503 38.6891 41.5901 37.2825 44.5979C35.8759 47.6057 34.2799 50.547 32.6009 53.4326C30.9219 56.3181 29.1535 59.1566 27.3234 61.9542C26.4084 63.3534 25.477 64.7426 24.5293 66.1218L23.8441 67.1466C23.5966 67.4969 23.2824 67.7941 22.9198 68.0209C22.5571 68.2477 22.1533 68.3995 21.7319 68.4675C21.3104 68.5356 20.8798 68.5184 20.465 68.4172C20.0502 68.3159 19.6595 68.1325 19.3157 67.8776C19.041 67.6755 18.7997 67.431 18.6007 67.153L17.8857 66.1261C16.9366 64.7476 15.996 63.367 15.0746 61.9692C13.2339 59.1823 11.457 56.346 9.7716 53.4604C8.08622 50.5748 6.49447 47.64 5.06445 44.6322C3.63443 41.6244 2.37252 38.533 1.60431 35.3323C1.23404 33.7373 0.987189 32.1016 1.09784 30.5087C1.14318 29.7227 1.31271 28.9491 1.60005 28.217C1.89082 27.5094 2.34193 26.8802 2.91729 26.3797C3.52089 25.8883 4.21574 25.5231 4.96115 25.3056C5.70656 25.088 6.48756 25.0224 7.25843 25.1127C8.82038 25.2864 10.3142 26.0367 11.6208 27.0014C12.9371 27.9956 14.114 29.1646 15.1193 30.4765C15.6272 31.1273 16.0928 31.8104 16.5131 32.5217C16.9395 33.2167 17.2811 33.961 17.5303 34.7385C17.5824 34.9221 17.618 35.1101 17.6367 35.3001C17.6464 35.494 17.64 35.6883 17.6176 35.8811C17.5947 36.2435 17.4339 36.5829 17.1686 36.8287C17.0205 36.9317 16.8535 37.0038 16.6773 37.0406C16.5011 37.0774 16.3194 37.0783 16.1429 37.0431C15.7472 36.9865 15.3617 36.8732 14.998 36.7065C13.5084 36.0226 12.1954 34.9378 10.9548 33.8273L10.8058 33.9838C11.4076 34.5768 12.0391 35.1385 12.6976 35.6667C13.3554 36.2066 14.0688 36.6738 14.8256 37.0602C15.2203 37.2589 15.6419 37.3976 16.0769 37.4718C16.3126 37.5193 16.5554 37.5186 16.7909 37.4696C17.0263 37.4206 17.2496 37.3244 17.4473 37.1867C17.8164 36.8729 18.0506 36.4272 18.1006 35.9433C18.1331 35.7212 18.1466 35.4967 18.1411 35.2723C18.1272 35.0435 18.0916 34.8167 18.0347 34.5948C17.7927 33.7647 17.4519 32.9671 17.0196 32.2195C16.6047 31.4752 16.1419 30.7591 15.6343 30.0756C14.6245 28.6893 13.4334 27.4467 12.0933 26.3818C10.7377 25.3335 9.15448 24.4524 7.36483 24.2166C6.46645 24.1024 5.55448 24.1698 4.68229 24.415C3.8101 24.6602 2.9952 25.0781 2.28527 25.6444C1.58305 26.2383 1.02724 26.9883 0.661603 27.8354C0.320091 28.663 0.111077 29.54 0.0423533 30.4337C-0.104479 32.1937 0.140242 33.9217 0.499875 35.5917C1.25106 38.936 2.51084 42.1025 3.90469 45.181C5.29853 48.2595 6.8839 51.2416 8.57141 54.1636C10.2589 57.0856 12.023 59.9519 13.8574 62.7775C14.7753 64.1895 15.7095 65.5902 16.66 66.9794L17.3835 68.0234C17.8222 68.6365 18.3992 69.1359 19.067 69.4803C19.7348 69.8247 20.4743 70.0043 21.2245 70.0043C21.9748 70.0043 22.7143 69.8247 23.3821 69.4803C24.0499 69.1359 24.6269 68.6365 25.0656 68.0234L25.7912 66.9815C26.7446 65.5937 27.6838 64.1967 28.6087 62.7903C30.4558 59.9734 32.2434 57.1156 33.9287 54.1893C35.6141 51.263 37.2016 48.2874 38.6104 45.2132C40.0191 42.1389 41.2725 38.9639 42.028 35.6088C42.3876 33.9281 42.6408 32.1937 42.4833 30.4187Z" fill="#FBAE40"/>
<path d="M3.56872 13.6025C3.65729 13.2995 3.76098 13.0011 3.87941 12.7086C3.99182 12.4268 4.12189 12.1526 4.26883 11.8875L2.92606 11.1328C2.75481 11.4719 2.60623 11.8221 2.4813 12.1812C2.35975 12.5286 2.25605 12.8821 2.17062 13.2402C1.99956 13.9605 1.91737 14.6992 1.92589 15.4398C1.9322 16.1925 2.05497 16.9397 2.28978 17.6543C2.53088 18.3678 2.89067 19.0348 3.35379 19.6267C4.28924 20.7521 5.47963 21.6345 6.82457 22.1992C7.46297 22.4972 8.15883 22.7073 8.77595 22.9453C9.39307 23.1833 10.0528 23.4019 10.6784 23.6506C13.1703 24.6796 15.5728 26.0088 17.5412 27.8696C18.5437 28.7788 19.3938 29.8452 20.0587 31.0275C20.7141 32.2044 21.1907 33.5208 21.2227 34.8864C21.2567 33.5143 20.8396 32.1594 20.2289 30.931C19.608 29.6924 18.7916 28.5637 17.8115 27.5888C15.8963 25.5886 13.4874 24.1115 10.9891 22.9389C10.3507 22.6559 9.71227 22.3986 9.07387 22.1285C8.43547 21.8584 7.82048 21.6311 7.23315 21.3224C6.07039 20.7764 5.05512 19.9566 4.27309 18.9321C3.55542 17.9207 3.19911 16.6942 3.26228 15.4526C3.28938 14.8257 3.39229 14.2044 3.56872 13.6025Z" fill="#FBAE40"/>
<path d="M24.9084 27.8632C26.8725 26.0003 29.2793 24.6732 31.7712 23.6442C32.399 23.3955 33.048 23.1747 33.6715 22.9389C34.295 22.7031 34.9866 22.4908 35.625 22.1928C36.9697 21.6275 38.16 20.7453 39.0958 19.6202C39.5599 19.029 39.9198 18.3619 40.1598 17.6479C40.3957 16.9335 40.5185 16.1862 40.5237 15.4334C40.5313 14.6925 40.4469 13.9536 40.2726 13.2338C40.1854 12.8758 40.0832 12.5221 39.9619 12.1748C39.837 11.8157 39.6884 11.4655 39.5172 11.1264L38.1723 11.8811C38.3208 12.1457 38.4516 12.42 38.5638 12.7021C38.6825 12.9944 38.7855 13.2928 38.8724 13.5961C39.0495 14.1977 39.151 14.8192 39.1746 15.4462C39.2385 16.6876 38.8829 17.9141 38.1659 18.9257C37.3838 19.9501 36.3686 20.77 35.2058 21.316C34.6185 21.6247 34.0099 21.8391 33.3651 22.1221C32.7203 22.4051 32.0883 22.6495 31.4499 22.9325C28.9516 24.1051 26.5555 25.5822 24.6275 27.5824C23.6474 28.5573 22.8309 29.686 22.2101 30.9246C21.5993 32.153 21.1822 33.4972 21.2163 34.88C21.2482 33.5079 21.7249 32.1916 22.3803 31.0211C23.0484 29.838 23.9021 28.7716 24.9084 27.8632Z" fill="#FBAE40"/>
<path d="M11.7659 6.75948C13.2571 7.34827 14.6213 8.22181 15.7836 9.33206C16.3623 9.88311 16.8861 10.4898 17.3476 11.1436C17.815 11.795 18.2272 12.4849 18.5798 13.2059C19.2869 14.6553 19.8095 16.1888 20.1353 17.7701C20.4756 19.3433 20.644 20.9493 20.6375 22.5594V22.5894H21.8037C21.8037 22.5787 21.8037 22.568 21.8037 22.5573C21.7929 20.9469 21.957 19.3402 22.2931 17.7658C22.6169 16.1825 23.1381 14.6468 23.8445 13.1952C24.1968 12.4724 24.6082 11.7805 25.0744 11.1264C25.5353 10.4695 26.0592 9.85989 26.6385 9.30633C27.7995 8.1902 29.1628 7.30953 30.6541 6.71231L31.252 6.46792L30.7222 6.09704C30.3808 5.84268 30.0176 5.61955 29.6369 5.43031C29.2666 5.23522 28.8878 5.06586 28.5027 4.90507C27.7296 4.60174 26.9351 4.35737 26.1257 4.17403C25.3201 3.99193 24.5043 3.85948 23.6827 3.77742C23.272 3.73026 22.8592 3.72169 22.4463 3.69167L21.2206 3.66809L19.9928 3.68738C19.5799 3.71525 19.1671 3.71954 18.7564 3.7667C17.9314 3.84312 17.1119 3.97128 16.3028 4.15045C15.4916 4.33043 14.695 4.57121 13.9194 4.87077C13.5343 5.03156 13.1512 5.19878 12.7809 5.39172C12.3966 5.5805 12.0298 5.80364 11.685 6.05845L11.1211 6.48721L11.7595 6.76805L11.7659 6.75948ZM14.2833 5.95555C15.0317 5.75322 15.7904 5.59148 16.556 5.47104C17.3242 5.35742 18.0967 5.25666 18.8734 5.21593C19.2607 5.18592 19.6523 5.17948 20.0396 5.15804H21.2206H22.4017C22.789 5.17734 23.1805 5.18377 23.5678 5.21164C24.3467 5.25237 25.1191 5.34241 25.8873 5.45175C26.6551 5.56924 27.4165 5.72594 28.1686 5.92124C28.6668 6.0475 29.1571 6.20356 29.6369 6.3886C27.5461 7.31311 25.7297 8.7692 24.3658 10.6141C23.8541 11.2972 23.4 12.0221 23.0081 12.7815C22.2326 14.2911 21.6485 15.8929 21.2696 17.5493C21.2547 17.6158 21.2419 17.6801 21.227 17.7466C21.2121 17.6801 21.1993 17.6136 21.1823 17.5472C20.8086 15.8887 20.228 14.2845 19.4544 12.7729C18.6774 11.2455 17.641 9.86695 16.3922 8.69964C15.3661 7.74913 14.194 6.9723 12.9214 6.39931C13.3667 6.22559 13.8214 6.07744 14.2833 5.95555Z" fill="#FBAE40"/>
<path d="M26.4364 14.8974C25.8176 15.3937 25.2822 15.9873 24.8511 16.6553C24.7934 16.7504 24.7436 16.85 24.7021 16.9533C24.6504 17.0614 24.6112 17.175 24.5851 17.292C24.5159 17.5577 24.5159 17.8368 24.5851 18.1024C24.6716 18.3636 24.8267 18.5962 25.0341 18.7756C25.1217 18.8575 25.218 18.9294 25.3214 18.99C25.4151 19.0502 25.5133 19.1033 25.615 19.1486C26.0026 19.3379 26.4243 19.4457 26.8545 19.4656C27.2847 19.4855 27.7144 19.4171 28.1176 19.2644C28.8618 18.9331 29.5036 18.4058 29.9753 17.738C30.8676 16.512 31.4418 15.0809 31.6458 13.5747L31.3968 13.5082C30.784 14.8224 30.1604 16.1365 29.3092 17.2192C28.9178 17.746 28.3941 18.1581 27.792 18.4133C27.5059 18.5114 27.2028 18.5493 26.9015 18.5246C26.6002 18.4999 26.3072 18.4131 26.0406 18.2696C25.4639 17.9545 25.4256 17.7465 25.747 17.1827C26.1354 16.6344 26.6064 16.1505 27.1429 15.7485C28.2762 14.8677 29.4647 14.0613 30.701 13.3346C31.9458 12.5971 33.2056 11.8746 34.4867 11.18C34.6463 11.0921 34.8059 11.0107 34.9676 10.9163L35.4613 10.614L35.955 10.3096C36.1125 10.1981 36.2593 10.0738 36.4125 9.95589L36.8637 9.59573C37.0126 9.47353 37.1382 9.32775 37.2765 9.19269L37.6808 8.78322C37.817 8.64816 37.9277 8.48952 38.0511 8.35446C38.997 7.17254 39.7216 5.8272 40.1898 4.3841C40.4211 3.67648 40.5975 2.95184 40.7175 2.2167C40.8451 1.48861 40.9043 0.750002 40.8941 0.0107117C40.7467 0.724758 40.5592 1.42978 40.3323 2.12237C40.2259 2.46967 40.0919 2.80625 39.9748 3.14498C39.8578 3.4837 39.7046 3.81385 39.5492 4.13756C38.9745 5.43385 38.2075 6.63454 37.2744 7.69845C37.1552 7.82708 37.0509 7.96857 36.9233 8.08648L36.5423 8.44021C36.4104 8.55598 36.2934 8.68461 36.155 8.78965L35.7614 9.09193C35.623 9.19483 35.489 9.30632 35.3358 9.40279L34.8889 9.66648L34.4441 9.93231C34.2888 10.0181 34.1207 10.1017 33.9589 10.1874C32.6566 10.867 31.3585 11.5638 30.0987 12.3312C28.8126 13.0878 27.5879 13.9458 26.4364 14.8974Z" fill="#FBAE40"/>
<path d="M2.28534 4.37339C2.74839 5.81651 3.4696 7.16212 4.41335 8.34375C4.53678 8.48953 4.6453 8.64817 4.7815 8.77251L5.18582 9.18198C5.32414 9.31704 5.44969 9.46282 5.59865 9.58502L6.04979 9.94518C6.20301 10.0631 6.34984 10.1874 6.50731 10.2989L7.00101 10.6033L7.49471 10.9056C7.65644 10.9999 7.81604 11.0814 7.97564 11.1693C9.25244 11.8639 10.5165 12.5864 11.7614 13.3238C13.0026 14.0531 14.1954 14.863 15.3322 15.7485C15.8687 16.1505 16.3397 16.6344 16.7281 17.1827C17.0495 17.7465 17.0112 17.9545 16.4345 18.2696C16.1679 18.4131 15.8749 18.4999 15.5736 18.5246C15.2723 18.5493 14.9692 18.5114 14.6831 18.4133C14.081 18.1581 13.5573 17.746 13.1659 17.2192C12.3146 16.1472 11.6911 14.8224 11.0783 13.5082L10.8293 13.5747C11.0343 15.0807 11.6084 16.5115 12.4998 17.738C12.9715 18.4058 13.6133 18.9331 14.3575 19.2644C14.7607 19.4171 15.1904 19.4855 15.6206 19.4656C16.0508 19.4457 16.4725 19.3379 16.8601 19.1486C16.9618 19.1033 17.06 19.0503 17.1537 18.99C17.2571 18.9294 17.3534 18.8575 17.441 18.7756C17.6484 18.5962 17.8035 18.3636 17.89 18.1024C17.9614 17.8371 17.9614 17.5574 17.89 17.292C17.8639 17.175 17.8247 17.0614 17.773 16.9533C17.7333 16.8493 17.6834 16.7495 17.624 16.6553C17.1936 15.9874 16.659 15.3938 16.0408 14.8974C14.8876 13.9487 13.6615 13.0935 12.3742 12.3398C11.1145 11.5638 9.82062 10.867 8.51402 10.196C8.35229 10.1103 8.18418 10.0266 8.02884 9.94089L7.58408 9.67506L7.1372 9.41137C6.99463 9.3149 6.86269 9.19699 6.7116 9.10052L6.29877 8.78752C6.16045 8.68247 6.04341 8.55384 5.9136 8.43808L5.53056 8.08434C5.40288 7.96643 5.2986 7.82494 5.17944 7.69631C4.24634 6.6324 3.47929 5.43171 2.90459 4.13543C2.75563 3.81171 2.6237 3.47727 2.47899 3.14284C2.33429 2.8084 2.22789 2.46754 2.12149 2.12024C1.89437 1.4279 1.70749 0.72282 1.56182 0.00857544C1.55097 0.747798 1.6094 1.48641 1.73632 2.21457C1.8627 2.9476 2.04628 3.66944 2.28534 4.37339Z" fill="#FBAE40"/>
</g>
<defs>
<clipPath id="clip0_154_3280">
<rect width="143" height="70" fill="white"/>
</clipPath>
</defs>
</svg>
