<svg width="156" height="294" viewBox="0 0 156 294" fill="none" xmlns="http://www.w3.org/2000/svg">
<g clip-path="url(#clip0_27_2817)">
<path d="M267.692 189.465C267.236 183.842 265.878 178.329 263.669 173.134C261.319 167.796 257.757 163.075 253.264 159.341C248.729 155.806 243.531 153.209 237.975 151.7C232.42 150.191 226.617 149.802 220.909 150.554C209.578 152.117 199.575 157.605 191.034 164.174C182.578 170.823 175.087 178.606 168.775 187.302C165.618 191.601 162.738 196.097 160.154 200.761C157.472 205.427 155.369 210.399 153.892 215.57C153.549 216.94 153.338 218.339 153.262 219.749C153.228 221.139 153.323 222.529 153.543 223.902C153.848 226.842 155.291 229.548 157.566 231.446C158.783 232.266 160.153 232.834 161.595 233.119C163.036 233.403 164.52 233.397 165.96 233.102C168.659 232.628 171.275 231.765 173.723 230.538C178.481 228.136 182.948 225.202 187.038 221.792C191.137 218.474 195.067 214.954 198.811 211.243C190.9 218.12 182.519 224.77 173.026 229.03C170.702 230.082 168.235 230.789 165.705 231.126C164.544 231.34 163.351 231.319 162.199 231.062C161.047 230.804 159.959 230.318 159.001 229.63C157.276 228.05 156.241 225.859 156.118 223.528C155.979 222.309 155.947 221.08 156.024 219.856C156.143 218.662 156.377 217.481 156.721 216.331C158.343 211.494 160.539 206.868 163.265 202.551C171.347 189.343 181.844 177.762 194.212 168.407C202.458 162.438 211.831 157.792 221.619 156.763C226.427 156.239 231.291 156.668 235.931 158.028C240.571 159.387 244.895 161.648 248.651 164.682C252.204 167.773 254.986 171.645 256.777 175.992C258.545 180.495 259.581 185.251 259.847 190.079C260.253 200.138 259.173 210.202 256.643 219.95C251.842 239.819 243.784 259.047 234.921 277.781C226.058 296.515 216.001 314.835 205.422 332.809C194.842 350.782 183.699 368.461 172.168 385.886C166.402 394.601 160.534 403.254 154.562 411.845L150.245 418.227C148.685 420.409 146.705 422.26 144.42 423.673C142.135 425.085 139.591 426.031 136.935 426.455C134.28 426.879 131.566 426.772 128.952 426.141C126.339 425.51 123.877 424.368 121.711 422.781C119.98 421.522 118.459 419.999 117.206 418.267L112.7 411.871C106.72 403.285 100.793 394.686 94.9873 385.98C83.3888 368.621 72.1925 350.955 61.5728 332.982C50.9531 315.009 40.9234 296.729 31.9127 277.995C22.9021 259.261 14.9507 240.006 10.1101 220.07C7.77702 210.135 6.22161 199.947 6.91886 190.026C7.20452 185.13 8.27277 180.312 10.0833 175.751C11.9154 171.344 14.7579 167.425 18.3833 164.308C22.1867 161.247 26.5649 158.973 31.2618 157.618C35.9587 156.263 40.8798 155.854 45.7371 156.416C55.5791 157.498 64.992 162.171 73.225 168.18C81.5191 174.373 88.9342 181.654 95.2689 189.825C98.4692 193.879 101.403 198.134 104.052 202.564C106.738 206.893 108.89 211.529 110.461 216.371C110.789 217.515 111.013 218.686 111.131 219.869C111.192 221.077 111.152 222.287 111.011 223.488C110.867 225.745 109.853 227.859 108.181 229.39C107.249 230.032 106.196 230.481 105.086 230.71C103.976 230.939 102.831 230.945 101.718 230.725C99.2257 230.373 96.7963 229.667 94.5046 228.629C85.1185 224.369 76.8453 217.613 69.028 210.696L68.0894 211.671C71.8816 215.364 75.8602 218.863 80.0098 222.153C84.1544 225.516 88.6497 228.425 93.4185 230.832C95.9051 232.07 98.562 232.934 101.303 233.396C102.788 233.692 104.318 233.687 105.802 233.382C107.285 233.077 108.692 232.478 109.938 231.62C112.264 229.665 113.739 226.89 114.054 223.875C114.259 222.492 114.344 221.094 114.309 219.696C114.222 218.271 113.997 216.858 113.639 215.476C112.114 210.306 109.967 205.338 107.243 200.681C104.628 196.046 101.713 191.585 98.5138 187.328C92.1515 178.693 84.6462 170.954 76.2017 164.321C67.6603 157.792 57.6843 152.304 46.4075 150.835C40.7468 150.123 35.0004 150.544 29.5047 152.071C24.0089 153.598 18.8742 156.201 14.4009 159.728C9.97617 163.427 6.47399 168.099 4.17007 173.375C2.01818 178.53 0.701175 183.992 0.268141 189.558C-0.65706 200.521 0.884944 211.283 3.15102 221.685C7.88429 242.516 15.8223 262.238 24.605 281.413C33.3877 300.588 43.3772 319.162 54.0103 337.362C64.6434 355.562 75.7592 373.415 87.3175 391.014C93.1012 399.809 98.9876 408.533 104.977 417.186L109.536 423.689C112.3 427.508 115.936 430.618 120.144 432.763C124.352 434.908 129.011 436.027 133.739 436.027C138.466 436.027 143.125 434.908 147.333 432.763C151.541 430.618 155.177 427.508 157.941 423.689L162.514 417.199C168.521 408.555 174.438 399.854 180.267 391.094C191.906 373.548 203.169 355.749 213.789 337.522C224.408 319.295 234.411 300.761 243.288 281.613C252.164 262.465 260.062 242.69 264.822 221.792C267.088 211.324 268.684 200.521 267.692 189.465Z" fill="#FBAE40"/>
<path d="M22.4864 84.7244C23.0445 82.8367 23.6979 80.9783 24.4441 79.1562C25.1524 77.4014 25.972 75.6933 26.8979 74.042L18.437 69.3418C17.3579 71.4538 16.4217 73.6352 15.6346 75.8714C14.8686 78.0352 14.2152 80.2369 13.6769 82.4677C12.5991 86.9539 12.0812 91.5554 12.1349 96.1678C12.1746 100.856 12.9482 105.51 14.4278 109.961C15.9469 114.405 18.214 118.559 21.1321 122.246C27.0265 129.256 34.5272 134.752 43.0018 138.27C47.0244 140.126 51.409 141.434 55.2976 142.916C59.1861 144.399 63.3428 145.761 67.2849 147.31C82.9866 153.719 98.125 161.998 110.528 173.588C116.845 179.251 122.201 185.893 126.391 193.257C130.52 200.588 133.524 208.786 133.725 217.292C133.94 208.746 131.312 200.307 127.463 192.656C123.551 184.942 118.407 177.911 112.231 171.839C100.163 159.381 84.9844 150.18 69.2426 142.876C65.22 141.114 61.1974 139.511 57.1748 137.829C53.1521 136.147 49.277 134.731 45.5762 132.808C38.2496 129.408 31.8523 124.301 26.9247 117.92C22.4027 111.621 20.1575 103.981 20.5556 96.248C20.7263 92.3429 21.3747 88.4731 22.4864 84.7244Z" fill="#FBAE40"/>
<path d="M156.949 173.548C169.325 161.944 184.491 153.679 200.192 147.27C204.148 145.721 208.238 144.345 212.166 142.876C216.095 141.408 220.453 140.086 224.476 138.23C232.948 134.709 240.448 129.213 246.345 122.206C249.269 118.523 251.537 114.368 253.049 109.921C254.536 105.472 255.309 100.817 255.342 96.1278C255.39 91.5133 254.859 86.9109 253.76 82.4277C253.21 80.1977 252.567 77.9945 251.802 75.8313C251.015 73.5951 250.079 71.4137 249 69.3017L240.526 74.002C241.462 75.6501 242.286 77.3586 242.993 79.1161C243.741 80.9362 244.39 82.7949 244.937 84.6843C246.053 88.4311 246.693 92.3025 246.841 96.2079C247.244 103.94 245.004 111.579 240.485 117.88C235.558 124.261 229.161 129.367 221.834 132.768C218.133 134.691 214.298 136.026 210.235 137.789C206.173 139.552 202.19 141.074 198.168 142.836C182.426 150.14 167.328 159.341 155.179 171.799C149.003 177.871 143.859 184.901 139.947 192.616C136.099 200.267 133.471 208.64 133.685 217.252C133.886 208.706 136.89 200.508 141.02 193.217C145.229 185.848 150.609 179.206 156.949 173.548Z" fill="#FBAE40"/>
<path d="M74.1368 42.1018C83.5331 45.7691 92.1292 51.21 99.4525 58.1253C103.099 61.5576 106.4 65.3366 109.308 69.4086C112.253 73.4661 114.85 77.7631 117.072 82.2541C121.527 91.2817 124.82 100.833 126.873 110.682C129.017 120.481 130.078 130.484 130.038 140.513V140.7H137.386C137.386 140.633 137.386 140.566 137.386 140.5C137.318 130.469 138.352 120.462 140.47 110.656C142.51 100.794 145.794 91.2283 150.245 82.1873C152.465 77.6854 155.057 73.3753 157.995 69.3017C160.899 65.2101 164.2 61.413 167.85 57.9651C175.166 51.0132 183.756 45.5278 193.153 41.808L196.92 40.2858L193.582 37.9758C191.431 36.3915 189.142 35.0017 186.743 33.823C184.41 32.6079 182.023 31.553 179.596 30.5515C174.725 28.6622 169.719 27.1401 164.619 25.9982C159.543 24.8639 154.402 24.0389 149.226 23.5279C146.638 23.2341 144.036 23.1807 141.435 22.9938L133.712 22.8469L125.975 22.967C123.374 23.1406 120.772 23.1673 118.184 23.4611C112.986 23.937 107.823 24.7353 102.724 25.8513C97.6131 26.9723 92.5932 28.472 87.7064 30.3379C85.2795 31.3393 82.8659 32.3809 80.5328 33.5826C78.1109 34.7585 75.7998 36.1483 73.6273 37.7354L70.074 40.406L74.0966 42.1552L74.1368 42.1018ZM89.9993 37.0945C94.7152 35.8342 99.4956 34.8269 104.32 34.0767C109.16 33.369 114.028 32.7414 118.922 32.4877C121.362 32.3008 123.83 32.2607 126.27 32.1272H133.712H141.154C143.594 32.2473 146.061 32.2874 148.502 32.461C153.409 32.7147 158.277 33.2755 163.117 33.9565C167.955 34.6883 172.753 35.6643 177.491 36.8808C180.631 37.6672 183.72 38.6392 186.743 39.7917C173.569 45.5502 162.124 54.6195 153.53 66.1104C150.305 70.365 147.444 74.8807 144.975 79.6102C140.088 89.013 136.408 98.9902 134.02 109.307C133.926 109.721 133.846 110.122 133.752 110.536C133.658 110.122 133.578 109.708 133.47 109.294C131.116 98.9636 127.457 88.9719 122.582 79.5568C117.687 70.0434 111.157 61.4569 103.287 54.1862C96.822 48.2659 89.4365 43.4274 81.4177 39.8585C84.2235 38.7765 87.0887 37.8537 89.9993 37.0945Z" fill="#FBAE40"/>
<path d="M166.576 92.7896C162.677 95.8806 159.304 99.578 156.587 103.739C156.224 104.331 155.91 104.952 155.648 105.595C155.323 106.268 155.075 106.976 154.911 107.705C154.475 109.359 154.475 111.098 154.911 112.752C155.456 114.379 156.434 115.828 157.74 116.945C158.292 117.456 158.899 117.903 159.55 118.28C160.141 118.656 160.76 118.986 161.401 119.268C163.842 120.447 166.5 121.119 169.211 121.243C171.921 121.367 174.629 120.941 177.169 119.989C181.859 117.926 185.903 114.642 188.875 110.482C194.497 102.846 198.115 93.9326 199.401 84.5508L197.832 84.1368C193.97 92.3222 190.042 100.508 184.678 107.251C182.212 110.532 178.912 113.099 175.118 114.688C173.315 115.3 171.405 115.536 169.507 115.382C167.608 115.228 165.762 114.688 164.082 113.794C160.449 111.831 160.207 110.536 162.232 107.024C164.68 103.609 167.647 100.595 171.028 98.0907C178.169 92.6044 185.658 87.5822 193.447 83.0553C201.292 78.4619 209.229 73.9619 217.302 69.6356C218.307 69.0881 219.313 68.5807 220.332 67.9932L223.443 66.1104L226.554 64.2143C227.546 63.5199 228.471 62.7455 229.436 62.011L232.279 59.7677C233.218 59.0066 234.009 58.0986 234.88 57.2574L237.428 54.707C238.286 53.8658 238.983 52.8776 239.761 52.0364C245.721 44.6747 250.287 36.2952 253.237 27.3068C254.694 22.8993 255.806 18.3858 256.562 13.8069C257.366 9.27195 257.739 4.67149 257.675 0.0667725C256.747 4.51426 255.565 8.90556 254.135 13.2194C253.465 15.3826 252.62 17.479 251.883 19.5888C251.145 21.6985 250.18 23.7549 249.201 25.7712C245.58 33.8452 240.746 41.3238 234.867 47.9504C234.116 48.7516 233.459 49.6329 232.655 50.3673L230.254 52.5705C229.423 53.2916 228.686 54.0928 227.814 54.747L225.333 56.6298C224.462 57.2707 223.617 57.9651 222.652 58.566L219.836 60.2084L217.033 61.8642C216.055 62.3983 214.995 62.919 213.976 63.4531C205.77 67.686 197.591 72.0257 189.653 76.8061C181.548 81.5181 173.832 86.8626 166.576 92.7896Z" fill="#FBAE40"/>
<path d="M14.401 27.24C17.3187 36.2286 21.863 44.6098 27.8097 51.9696C28.5874 52.8776 29.2712 53.8657 30.1294 54.6402L32.6771 57.1906C33.5486 58.0319 34.3397 58.9398 35.2784 59.701L38.121 61.9443C39.0864 62.6787 40.0116 63.4531 41.0039 64.1475L44.1147 66.0436L47.2255 67.9264C48.2446 68.5139 49.2502 69.0213 50.2559 69.5688C58.3011 73.8951 66.2659 78.3951 74.11 82.9885C81.9312 87.5308 89.447 92.5755 96.6098 98.0907C99.9905 100.595 102.958 103.609 105.406 107.024C107.431 110.536 107.189 111.831 103.556 113.794C101.876 114.688 100.029 115.228 98.1311 115.382C96.2328 115.536 94.323 115.3 92.5202 114.688C88.7263 113.099 85.4262 110.532 82.9598 107.251C77.5963 100.574 73.6675 92.3222 69.8058 84.1368L68.237 84.5508C69.5286 93.9309 73.1461 102.843 78.7628 110.482C81.7353 114.642 85.7792 117.926 90.4686 119.989C93.0087 120.941 95.7165 121.367 98.4274 121.243C101.138 121.119 103.795 120.447 106.237 119.268C106.878 118.986 107.497 118.656 108.088 118.28C108.739 117.903 109.346 117.456 109.898 116.945C111.204 115.828 112.182 114.379 112.727 112.752C113.177 111.099 113.177 109.357 112.727 107.705C112.563 106.976 112.315 106.268 111.99 105.595C111.739 104.947 111.425 104.325 111.051 103.739C108.339 99.5785 104.97 95.8812 101.075 92.7895C93.8083 86.8803 86.0831 81.5536 77.9717 76.8595C70.0338 72.0257 61.8812 67.686 53.6483 63.5066C52.6292 62.9724 51.5699 62.4517 50.5911 61.9176L47.7887 60.2618L44.9729 58.6194C44.0745 58.0185 43.2431 57.2841 42.2911 56.6832L39.6898 54.7337C38.8183 54.0794 38.0808 53.2782 37.2628 52.5572L34.8493 50.3539C34.0448 49.6195 33.3877 48.7382 32.6368 47.937C26.7573 41.3104 21.9241 33.8318 18.3029 25.7578C17.3643 23.7415 16.533 21.6584 15.6212 19.5754C14.7094 17.4923 14.0389 15.3692 13.3685 13.2061C11.9374 8.8938 10.7599 4.50213 9.84202 0.0534058C9.77365 4.65771 10.1418 9.25817 10.9415 13.7936C11.7379 18.3593 12.8946 22.8554 14.401 27.24Z" fill="#FBAE40"/>
</g>
<defs>
<clipPath id="clip0_27_2817">
<rect width="268" height="436" fill="white"/>
</clipPath>
</defs>
</svg>
