<svg width="216" height="353" viewBox="0 0 216 353" fill="none" xmlns="http://www.w3.org/2000/svg">
<g clip-path="url(#clip0_27_325)">
<path d="M215.751 153.397C215.384 148.845 214.29 144.381 212.509 140.175C210.616 135.853 207.745 132.031 204.123 129.007C200.468 126.146 196.279 124.043 191.801 122.821C187.323 121.6 182.647 121.285 178.046 121.894C168.914 123.159 160.852 127.602 153.968 132.921C147.152 138.304 141.115 144.605 136.028 151.646C133.483 155.127 131.162 158.767 129.079 162.543C126.917 166.32 125.223 170.346 124.032 174.532C123.756 175.642 123.586 176.775 123.524 177.916C123.498 179.042 123.574 180.167 123.751 181.278C123.997 183.659 125.16 185.85 126.993 187.387C127.975 188.05 129.079 188.51 130.241 188.741C131.402 188.971 132.598 188.966 133.759 188.727C135.934 188.344 138.042 187.644 140.016 186.652C143.85 184.707 147.451 182.331 150.747 179.57C154.051 176.884 157.218 174.034 160.236 171.03C153.86 176.597 147.105 181.981 139.454 185.43C137.581 186.282 135.593 186.854 133.553 187.127C132.617 187.301 131.656 187.283 130.728 187.075C129.799 186.867 128.922 186.473 128.15 185.916C126.76 184.636 125.926 182.863 125.826 180.976C125.714 179.989 125.689 178.994 125.751 178.003C125.847 177.036 126.035 176.08 126.312 175.149C127.619 171.233 129.39 167.487 131.586 163.992C138.1 153.299 146.561 143.922 156.529 136.348C163.175 131.516 170.729 127.753 178.618 126.921C182.493 126.496 186.414 126.844 190.154 127.944C193.893 129.045 197.378 130.876 200.405 133.332C203.269 135.835 205.511 138.97 206.955 142.489C208.379 146.135 209.215 149.985 209.429 153.894C209.756 162.039 208.886 170.187 206.846 178.078C202.978 194.165 196.483 209.733 189.339 224.901C182.196 240.069 174.09 254.901 165.564 269.453C157.037 284.004 148.056 298.318 138.762 312.426C134.115 319.482 129.385 326.488 124.573 333.443L121.093 338.611C119.836 340.377 118.24 341.876 116.398 343.02C114.557 344.163 112.506 344.929 110.366 345.272C108.226 345.615 106.038 345.529 103.932 345.018C101.825 344.507 99.8412 343.582 98.0954 342.297C96.7002 341.278 95.4747 340.045 94.4642 338.643L90.833 333.465C86.0131 326.513 81.2364 319.551 76.5569 312.502C67.2089 298.448 58.185 284.145 49.6259 269.593C41.0667 255.042 32.983 240.242 25.7207 225.074C18.4584 209.906 12.0498 194.317 8.14849 178.176C6.26807 170.132 5.01446 161.884 5.57643 153.851C5.80666 149.888 6.66763 145.986 8.12688 142.294C9.60351 138.726 11.8945 135.553 14.8164 133.029C17.8818 130.551 21.4106 128.709 25.1961 127.612C28.9816 126.515 32.9479 126.185 36.8628 126.64C44.7951 127.515 52.3816 131.299 59.0172 136.164C65.7019 141.178 71.6783 147.073 76.7839 153.689C79.3633 156.97 81.7278 160.416 83.8625 164.003C86.0279 167.507 87.7624 171.26 89.0283 175.181C89.2927 176.107 89.4736 177.055 89.5686 178.014C89.6177 178.991 89.5852 179.971 89.4714 180.943C89.3553 182.771 88.5384 184.483 87.1911 185.722C86.4393 186.241 85.5909 186.605 84.6961 186.791C83.8014 186.976 82.8785 186.98 81.9821 186.803C79.9729 186.518 78.015 185.946 76.1679 185.106C68.603 181.657 61.935 176.187 55.6346 170.586L54.8781 171.376C57.9344 174.366 61.1411 177.198 64.4855 179.862C67.826 182.585 71.4491 184.941 75.2925 186.889C77.2967 187.891 79.4381 188.591 81.6471 188.965C82.8442 189.205 84.0774 189.201 85.273 188.954C86.4687 188.707 87.6025 188.222 88.6068 187.527C90.4813 185.945 91.6704 183.697 91.9245 181.257C92.0894 180.137 92.1581 179.005 92.1299 177.873C92.0595 176.72 91.8786 175.576 91.5895 174.457C90.3608 170.27 88.6298 166.248 86.4346 162.478C84.3274 158.725 81.9773 155.114 79.3992 151.667C74.2714 144.676 68.2223 138.41 61.4163 133.04C54.5322 127.753 46.4918 123.31 37.4031 122.121C32.8407 121.545 28.2093 121.885 23.7799 123.121C19.3505 124.358 15.2121 126.465 11.6067 129.321C8.04053 132.316 5.21787 136.098 3.36098 140.37C1.62663 144.544 0.565156 148.966 0.216143 153.473C-0.529542 162.348 0.713268 171.062 2.53965 179.484C6.35453 196.349 12.7523 212.317 19.8309 227.841C26.9095 243.366 34.9607 258.404 43.5307 273.139C52.1007 287.875 61.0597 302.329 70.3753 316.578C75.0368 323.699 79.7811 330.762 84.6082 337.767L88.2826 343.032C90.5104 346.124 93.4408 348.642 96.8322 350.379C100.224 352.116 103.979 353.022 107.789 353.022C111.599 353.022 115.355 352.116 118.746 350.379C122.138 348.642 125.068 346.124 127.296 343.032L130.981 337.778C135.823 330.78 140.592 323.735 145.29 316.643C154.67 302.437 163.748 288.026 172.307 273.269C180.866 258.512 188.928 243.506 196.083 228.004C203.237 212.501 209.602 196.49 213.439 179.57C215.265 171.095 216.551 162.348 215.751 153.397Z" fill="#FBAE40"/>
<path d="M18.1234 68.5957C18.5732 67.0673 19.0998 65.5627 19.7012 64.0875C20.2721 62.6668 20.9327 61.2838 21.6789 59.9469L14.8597 56.1414C13.99 57.8513 13.2354 59.6174 12.601 61.428C11.9837 63.1799 11.4571 64.9625 11.0232 66.7686C10.1545 70.4008 9.73709 74.1262 9.7804 77.8607C9.81243 81.6567 10.4359 85.4245 11.6284 89.0284C12.8528 92.6263 14.68 95.9896 17.0319 98.9745C21.7826 104.65 27.8279 109.1 34.6582 111.948C37.9003 113.45 41.4342 114.51 44.5682 115.71C47.7022 116.91 51.0524 118.013 54.2297 119.267C66.8847 124.456 79.0858 131.159 89.0823 140.543C94.1734 145.128 98.4906 150.505 101.867 156.467C105.196 162.402 107.616 169.04 107.778 175.927C107.951 169.008 105.833 162.175 102.732 155.981C99.5786 149.735 95.4323 144.043 90.4548 139.126C80.7285 129.04 68.495 121.591 55.8075 115.677C52.5654 114.25 49.3233 112.953 46.0812 111.591C42.8391 110.229 39.7159 109.083 36.7331 107.526C30.8281 104.773 25.6721 100.638 21.7005 95.4717C18.0559 90.3717 16.2464 84.1866 16.5672 77.9255C16.7048 74.7638 17.2274 71.6308 18.1234 68.5957Z" fill="#FBAE40"/>
<path d="M126.496 140.51C136.471 131.116 148.694 124.424 161.349 119.234C164.537 117.98 167.833 116.867 171 115.677C174.166 114.488 177.678 113.418 180.92 111.915C187.749 109.065 193.794 104.615 198.547 98.9421C200.903 95.9603 202.731 92.5961 203.95 88.996C205.148 85.3934 205.772 81.6247 205.798 77.8282C205.837 74.0922 205.408 70.3659 204.523 66.7362C204.08 64.9307 203.561 63.1469 202.945 61.3955C202.311 59.585 201.556 57.8189 200.686 56.109L193.856 59.9144C194.611 61.2488 195.275 62.6321 195.845 64.055C196.448 65.5286 196.971 67.0335 197.412 68.5632C198.311 71.5968 198.827 74.7312 198.947 77.8931C199.271 84.153 197.466 90.3382 193.824 95.4393C189.852 100.606 184.696 104.74 178.791 107.494C175.809 109.05 172.718 110.131 169.443 111.558C166.169 112.986 162.959 114.218 159.717 115.645C147.03 121.559 134.861 129.007 125.07 139.094C120.092 144.01 115.946 149.702 112.793 155.948C109.691 162.143 107.573 168.922 107.746 175.895C107.908 168.976 110.329 162.338 113.658 156.435C117.05 150.469 121.386 145.091 126.496 140.51Z" fill="#FBAE40"/>
<path d="M59.7521 34.087C67.3252 37.0562 74.2534 41.4613 80.1557 47.0602C83.0947 49.839 85.7551 52.8987 88.0989 56.1955C90.4724 59.4806 92.5655 62.9596 94.3561 66.5956C97.9473 73.9046 100.602 81.638 102.256 89.6122C103.984 97.5457 104.839 105.644 104.807 113.764V113.915H110.729C110.729 113.861 110.729 113.807 110.729 113.753C110.674 105.632 111.508 97.53 113.214 89.5906C114.858 81.606 117.506 73.8615 121.093 66.5416C122.882 62.8967 124.971 59.4071 127.339 56.109C129.68 52.7963 132.34 49.722 135.282 46.9304C141.178 41.302 148.102 36.8608 155.675 33.8492L158.712 32.6167L156.021 30.7464C154.288 29.4637 152.443 28.3385 150.509 27.3842C148.629 26.4004 146.705 25.5463 144.749 24.7355C140.824 23.2058 136.788 21.9735 132.678 21.049C128.587 20.1306 124.444 19.4627 120.271 19.0489C118.186 18.8111 116.089 18.7679 113.993 18.6165L107.768 18.4976L101.532 18.5949C99.4354 18.7354 97.3389 18.757 95.2531 18.9949C91.0635 19.3802 86.9019 20.0265 82.7926 20.9301C78.6732 21.8377 74.6273 23.0519 70.6888 24.5625C68.7327 25.3734 66.7874 26.2166 64.907 27.1896C62.955 28.1416 61.0924 29.2669 59.3414 30.5518L56.4775 32.714L59.7196 34.1303L59.7521 34.087ZM72.5368 30.0329C76.3376 29.0126 80.1905 28.197 84.0787 27.5896C87.98 27.0166 91.903 26.5085 95.8475 26.3031C97.8144 26.1518 99.8029 26.1193 101.77 26.0112H107.768H113.766C115.732 26.1085 117.721 26.1409 119.688 26.2815C123.643 26.4869 127.566 26.941 131.467 27.4923C135.367 28.0848 139.233 28.875 143.053 29.8599C145.583 30.4966 148.073 31.2836 150.509 32.2167C139.891 36.8789 130.667 44.2218 123.74 53.5252C121.142 56.9699 118.835 60.6259 116.846 64.455C112.907 72.0679 109.941 80.1457 108.016 88.4987C107.941 88.8338 107.876 89.1581 107.8 89.4933C107.724 89.1581 107.66 88.823 107.573 88.4878C105.675 80.1242 102.727 72.0346 98.7978 64.4118C94.8521 56.7094 89.5889 49.7576 83.2465 43.871C78.0356 39.0777 72.0832 35.1603 65.6203 32.2708C67.8817 31.3947 70.1909 30.6476 72.5368 30.0329Z" fill="#FBAE40"/>
<path d="M134.256 75.1255C131.113 77.6281 128.394 80.6216 126.204 83.9905C125.912 84.4698 125.659 84.9724 125.448 85.4932C125.186 86.0381 124.986 86.6112 124.854 87.2013C124.502 88.5409 124.502 89.9484 124.854 91.2879C125.293 92.6049 126.081 93.7781 127.134 94.6826C127.579 95.0959 128.068 95.4585 128.593 95.7636C129.069 96.0677 129.568 96.3352 130.084 96.5637C132.052 97.5182 134.194 98.0621 136.379 98.1625C138.564 98.2629 140.746 97.9175 142.793 97.1475C146.573 95.477 149.832 92.8178 152.228 89.45C156.759 83.2676 159.675 76.0509 160.711 68.4551L159.447 68.12C156.334 74.7471 153.168 81.3742 148.845 86.8338C146.857 89.4904 144.198 91.5689 141.14 92.8555C139.687 93.3505 138.147 93.5417 136.618 93.4171C135.088 93.2925 133.6 92.8548 132.246 92.1312C129.317 90.5419 129.122 89.4933 130.754 86.65C132.727 83.885 135.119 81.4448 137.844 79.4174C143.599 74.9756 149.635 70.9094 155.913 67.2443C162.235 63.5253 168.633 59.882 175.139 56.3793C175.949 55.936 176.76 55.5252 177.581 55.0495L180.088 53.5252L182.596 51.99C183.395 51.4278 184.141 50.8008 184.919 50.2062L187.21 48.3899C187.967 47.7737 188.604 47.0386 189.307 46.3575L191.36 44.2926C192.052 43.6115 192.614 42.8115 193.24 42.1304C198.044 36.1701 201.724 29.3858 204.102 22.1085C205.276 18.54 206.172 14.8857 206.782 11.1786C207.43 7.50687 207.73 3.7822 207.679 0.0540619C206.93 3.65489 205.978 7.21024 204.826 10.7029C204.285 12.4543 203.604 14.1516 203.01 15.8597C202.416 17.5678 201.638 19.2327 200.849 20.8652C197.93 27.4022 194.035 33.4571 189.296 38.8222C188.691 39.4709 188.161 40.1844 187.513 40.779L185.578 42.5628C184.908 43.1466 184.314 43.7953 183.611 44.325L181.612 45.8494C180.91 46.3683 180.229 46.9305 179.451 47.417L177.181 48.7467L174.923 50.0873C174.134 50.5197 173.28 50.9413 172.459 51.3738C165.845 54.8008 159.252 58.3144 152.855 62.1847C146.323 65.9997 140.104 70.3269 134.256 75.1255Z" fill="#FBAE40"/>
<path d="M11.6068 22.0544C13.9583 29.3318 17.621 36.1175 22.4138 42.0763C23.0406 42.8115 23.5918 43.6115 24.2834 44.2385L26.3367 46.3034C27.0392 46.9845 27.6768 47.7197 28.4333 48.3359L30.7244 50.1521C31.5025 50.7467 32.2482 51.3738 33.0479 51.9359L35.5551 53.4711L38.0624 54.9954C38.8837 55.4711 39.6942 55.8819 40.5047 56.3252C46.989 59.8279 53.4083 63.4712 59.7304 67.1902C66.0341 70.8678 72.0916 74.9522 77.8646 79.4174C80.5894 81.4448 82.9813 83.885 84.954 86.65C86.5859 89.4933 86.3914 90.5419 83.4627 92.1312C82.1088 92.8548 80.6207 93.2925 79.0908 93.4171C77.5608 93.5417 76.0216 93.3505 74.5685 92.8555C71.5107 91.5689 68.851 89.4904 66.8631 86.8338C62.5403 81.4283 59.3738 74.7471 56.2614 68.12L54.997 68.4551C56.038 76.0496 58.9536 83.2651 63.4805 89.45C65.8762 92.8178 69.1355 95.477 72.915 97.1474C74.9622 97.9175 77.1447 98.2629 79.3295 98.1625C81.5144 98.0621 83.656 97.5182 85.6241 96.5636C86.1407 96.3351 86.6393 96.0677 87.1154 95.7636C87.6403 95.4585 88.1296 95.0959 88.5744 94.6825C89.6274 93.7781 90.4155 92.6049 90.8547 91.2879C91.2169 89.9498 91.2169 88.5394 90.8547 87.2013C90.7222 86.6112 90.5228 86.0381 90.2603 85.4932C90.0585 84.9685 89.8051 84.4651 89.5038 83.9905C87.3178 80.6221 84.6027 77.6286 81.4634 75.1255C75.6067 70.3412 69.3804 66.0285 62.8429 62.228C56.4451 58.3144 49.8744 54.8008 43.2389 51.417C42.4176 50.9846 41.5638 50.5629 40.7749 50.1305L38.5163 48.7899L36.2468 47.4602C35.5227 46.9737 34.8527 46.3791 34.0854 45.8926L31.9888 44.3142C31.2864 43.7845 30.692 43.1358 30.0327 42.552L28.0875 40.7682C27.4391 40.1736 26.9095 39.4601 26.3043 38.8114C21.5656 33.4463 17.6702 27.3914 14.7516 20.8544C13.9951 19.2219 13.3251 17.5354 12.5902 15.8489C11.8553 14.1624 11.315 12.4434 10.7746 10.6921C9.62119 7.20072 8.67217 3.64507 7.93238 0.0432434C7.87727 3.77104 8.17398 7.49573 8.81855 11.1677C9.46039 14.8643 10.3927 18.5045 11.6068 22.0544Z" fill="#FBAE40"/>
</g>
<defs>
<clipPath id="clip0_27_325">
<rect width="216" height="353" fill="white"/>
</clipPath>
</defs>
</svg>
